<svg width="66" height="75" viewBox="0 0 66 75" fill="none" xmlns="http://www.w3.org/2000/svg">
<path d="M33.6531 0.492206L33.0204 0L32.3878 0.492206C18.1633 11.2797 1.02041 15.1969 0.836736 15.2174L0 15.402V16.2633C0 34.0443 0 71.0623 32.8775 75H33.1224C66 71.0623 66 34.0648 66 16.2633V15.402L65.1633 15.2174C65.0204 15.1969 47.8775 11.2797 33.6531 0.492206ZM33.0204 72.8466C2.59183 69.114 2.16327 35.7465 2.16327 17.1042C5.7551 16.1813 20.449 12.018 33.0204 2.68663C45.6735 12.0386 60.3061 16.1813 63.8775 17.1042C63.8775 35.7465 63.4286 69.114 33.0204 72.8466Z" fill="url(#paint0_linear_565_1172)"/>
<path d="M27.9779 50.0716L17.0392 39.5614C16.631 39.1737 16.6106 38.5206 17.0188 38.1124C17.4065 37.7043 18.0596 37.6839 18.4677 38.092L27.9983 47.2349L52.6106 23.2961C53.0187 22.9084 53.6514 22.9084 54.0595 23.3165C54.4473 23.7247 54.4473 24.3573 54.0391 24.7655L27.9779 50.0716Z" fill="url(#paint1_linear_565_1172)"/>
<defs>
<linearGradient id="paint0_linear_565_1172" x1="0.00757143" y1="37.5068" x2="66.0179" y2="37.5068" gradientUnits="userSpaceOnUse">
<stop stop-color="#007F61"/>
<stop offset="1" stop-color="#39C655"/>
</linearGradient>
<linearGradient id="paint1_linear_565_1172" x1="16.7225" y1="36.5507" x2="54.3143" y2="36.5507" gradientUnits="userSpaceOnUse">
<stop stop-color="#007F61"/>
<stop offset="1" stop-color="#39C655"/>
</linearGradient>
</defs>
</svg>
