<svg width="17" height="17" viewBox="0 0 17 17" fill="none" xmlns="http://www.w3.org/2000/svg">
<path d="M9.36066 1.75C9.36066 1.19772 8.91294 0.75 8.36066 0.75C7.80837 0.75 7.36066 1.19772 7.36066 1.75L9.36066 1.75ZM7.65355 12.4571C8.04407 12.8476 8.67724 12.8476 9.06776 12.4571L15.4317 6.09315C15.8222 5.70262 15.8222 5.06946 15.4317 4.67893C15.0412 4.28841 14.408 4.28841 14.0175 4.67893L8.36066 10.3358L2.7038 4.67893C2.31328 4.28841 1.68011 4.28841 1.28959 4.67893C0.899065 5.06946 0.899065 5.70262 1.28959 6.09315L7.65355 12.4571ZM7.36066 1.75L7.36066 11.75L9.36066 11.75L9.36066 1.75L7.36066 1.75Z" fill="white"/>
<path d="M1 15.25H15.7217" stroke="white" stroke-width="2" stroke-linecap="round"/>
</svg>
