<svg width="82" height="93" viewBox="0 0 82 93" fill="none" xmlns="http://www.w3.org/2000/svg">
<path d="M79.3952 92H2.60481C1.72217 92 1 91.2789 1 90.3976V14.6825C1 13.7211 1.80241 13 2.68505 13H79.3149C80.2778 13 81 13.8012 81 14.6825V90.3976C81 91.2789 80.2778 92 79.3952 92Z" fill="white" stroke="url(#paint0_linear_856_1076)" stroke-width="1.9882" stroke-miterlimit="10" stroke-linecap="round"/>
<path d="M15 21C12.8113 21 11 19.0487 11 16.691V5.30889C11 2.95116 12.8113 1 15 1C17.1887 1 19 2.95116 19 5.30889V16.691C19 19.0487 17.2642 21 15 21Z" fill="white" stroke="url(#paint1_linear_856_1076)" stroke-width="2" stroke-miterlimit="10"/>
<path d="M67 21C64.8113 21 63 19.0487 63 16.691V5.30897C63 2.95125 64.8113 1 67 1C69.1887 1 71 2.95125 71 5.30897V16.691C71 19.13 69.1887 21 67 21Z" fill="white" stroke="url(#paint2_linear_856_1076)" stroke-width="2" stroke-miterlimit="10"/>
<path d="M1 32H81" stroke="url(#paint3_linear_856_1076)" stroke-width="1.9968" stroke-miterlimit="10" stroke-linecap="round"/>
<path d="M64 40.8309L68.3333 49L75 38" fill="white"/>
<path d="M64 40.8309L68.3333 49L75 38" stroke="url(#paint4_linear_856_1076)" stroke-width="2" stroke-miterlimit="10" stroke-linecap="round"/>
<path d="M64 58.8905L68.3835 67L75 56" fill="white"/>
<path d="M64 58.8905L68.3835 67L75 56" stroke="url(#paint5_linear_856_1076)" stroke-width="2" stroke-miterlimit="10" stroke-linecap="round"/>
<path d="M64 75.8309L67.985 84L74 73" fill="white"/>
<path d="M64 75.8309L67.985 84L74 73" stroke="url(#paint6_linear_856_1076)" stroke-width="2" stroke-miterlimit="10" stroke-linecap="round"/>
<path d="M12 49H58" stroke="url(#paint7_linear_856_1076)" stroke-width="2" stroke-miterlimit="10" stroke-linecap="round"/>
<path d="M12 64H58" stroke="url(#paint8_linear_856_1076)" stroke-width="2" stroke-miterlimit="10" stroke-linecap="round"/>
<path d="M12 80H58" stroke="url(#paint9_linear_856_1076)" stroke-width="2" stroke-miterlimit="10" stroke-linecap="round"/>
<defs>
<linearGradient id="paint0_linear_856_1076" x1="0.202327" y1="52.5514" x2="81.7977" y2="52.5514" gradientUnits="userSpaceOnUse">
<stop stop-color="#007F61"/>
<stop offset="1" stop-color="#39C655"/>
</linearGradient>
<linearGradient id="paint1_linear_856_1076" x1="10.2453" y1="11" x2="19.7547" y2="11" gradientUnits="userSpaceOnUse">
<stop stop-color="#007F61"/>
<stop offset="1" stop-color="#39C655"/>
</linearGradient>
<linearGradient id="paint2_linear_856_1076" x1="62.2453" y1="11" x2="71.7547" y2="11" gradientUnits="userSpaceOnUse">
<stop stop-color="#007F61"/>
<stop offset="1" stop-color="#39C655"/>
</linearGradient>
<linearGradient id="paint3_linear_856_1076" x1="-nan" y1="-nan" x2="-nan" y2="-nan" gradientUnits="userSpaceOnUse">
<stop stop-color="#007F61"/>
<stop offset="1" stop-color="#39C655"/>
</linearGradient>
<linearGradient id="paint4_linear_856_1076" x1="63.1667" y1="43.9333" x2="75.8333" y2="43.9333" gradientUnits="userSpaceOnUse">
<stop stop-color="#007F61"/>
<stop offset="1" stop-color="#39C655"/>
</linearGradient>
<linearGradient id="paint5_linear_856_1076" x1="63.1729" y1="61.9268" x2="75.8271" y2="61.9268" gradientUnits="userSpaceOnUse">
<stop stop-color="#007F61"/>
<stop offset="1" stop-color="#39C655"/>
</linearGradient>
<linearGradient id="paint6_linear_856_1076" x1="63.2481" y1="78.9408" x2="74.7519" y2="78.9408" gradientUnits="userSpaceOnUse">
<stop stop-color="#007F61"/>
<stop offset="1" stop-color="#39C655"/>
</linearGradient>
<linearGradient id="paint7_linear_856_1076" x1="-nan" y1="-nan" x2="-nan" y2="-nan" gradientUnits="userSpaceOnUse">
<stop stop-color="#007F61"/>
<stop offset="1" stop-color="#39C655"/>
</linearGradient>
<linearGradient id="paint8_linear_856_1076" x1="-nan" y1="-nan" x2="-nan" y2="-nan" gradientUnits="userSpaceOnUse">
<stop stop-color="#007F61"/>
<stop offset="1" stop-color="#39C655"/>
</linearGradient>
<linearGradient id="paint9_linear_856_1076" x1="-nan" y1="-nan" x2="-nan" y2="-nan" gradientUnits="userSpaceOnUse">
<stop stop-color="#007F61"/>
<stop offset="1" stop-color="#39C655"/>
</linearGradient>
</defs>
</svg>
