<svg xmlns="http://www.w3.org/2000/svg" width="92" height="100" fill="none"><rect id="backgroundrect" width="100%" height="100%" x="0" y="0" fill="none" stroke="none" style="" class=""/>









<defs>
<linearGradient id="paint0_linear_565_1092" x1="-0.036900331679850976" y1="0.4999976944574402" x2="1.0369007531282004" y2="0.4999976944574402">
<stop stop-color="#007F61"/>
<stop offset="1" stop-color="#39C655"/>
</linearGradient>
<linearGradient id="paint1_linear_565_1092" x1="-0.06896682100102557" y1="0.5000000788760355" x2="1.0689668210010255" y2="0.5000000788760355">
<stop stop-color="#007F61"/>
<stop offset="1" stop-color="#39C655"/>
</linearGradient>
<linearGradient id="paint2_linear_565_1092" x1="-0.06849310246233627" y1="0.5000050847510662" x2="1.0684938847399925" y2="0.5000050847510662">
<stop stop-color="#007F61"/>
<stop offset="1" stop-color="#39C655"/>
</linearGradient>
<linearGradient id="paint3_linear_565_1092" x1="-0.06849591556061102" y1="0.5000050847510662" x2="1.068495915560611" y2="0.5000050847510662">
<stop stop-color="#007F61"/>
<stop offset="1" stop-color="#39C655"/>
</linearGradient>
<linearGradient id="paint4_linear_565_1092" x1="-0.024569789460332853" y1="0.5000000534702685" x2="1.024571473149093" y2="0.5000000534702685">
<stop stop-color="#007F61"/>
<stop offset="1" stop-color="#39C655"/>
</linearGradient>
<linearGradient id="paint5_linear_565_1092" x1="-0.0198101119901678" y1="0.5151800654294768" x2="1.0198184834797703" y2="0.5151800654294768">
<stop stop-color="#007F61"/>
<stop offset="1" stop-color="#39C655"/>
</linearGradient>
<linearGradient id="paint6_linear_565_1092" x1="-0.007382515076786286" y1="0.5" x2="1.007382430749999" y2="0.5">
<stop stop-color="#007F61"/>
<stop offset="1" stop-color="#39C655"/>
</linearGradient>
<linearGradient id="paint7_linear_565_1092" x1="-0.01295325327770301" y1="0.4999947271792817" x2="1.012953253277703" y2="0.4999947271792817">
<stop stop-color="#007F61"/>
<stop offset="1" stop-color="#39C655"/>
</linearGradient>
<linearGradient id="paint8_linear_565_1092" x1="-0.07142851315687498" y1="0.5" x2="1.0714293289606251" y2="0.5">
<stop stop-color="#007F61"/>
<stop offset="1" stop-color="#39C655"/>
</linearGradient>
</defs>
<g class="currentLayer" style=""><title>Layer 1</title><path d="M55.18877394409179,38.87700068969727 H37.08597394409179 V60.38650068969727 H55.18877394409179 V38.87700068969727 z" fill="white" stroke="url(#paint0_linear_565_1092)" stroke-width="2" stroke-miterlimit="10" id="svg_1" class=""/><path d="M57.1259739440918,1.132800689697266 H55.589573944091796 C54.854773944091804,1.132800689697266 54.320273944091795,1.7340006896972682 54.320273944091795,2.4020006896972674 V24.045200689697268 C54.320273944091795,24.780000689697268 54.92157394409179,25.314400689697266 55.589573944091796,25.314400689697266 C60.2655739440918,25.314400689697266 64.0060739440918,21.573600689697265 64.0060739440918,16.897600689697263 V8.013200689697264 C64.0060739440918,4.205600689697263 60.93357394409179,1.132800689697266 57.1259739440918,1.132800689697266 z" fill="white" stroke="url(#paint1_linear_565_1092)" stroke-width="2" stroke-miterlimit="10" id="svg_2" class=""/><path d="M32.3431739440918,30.059500689697266 C35.03637394409179,30.059500689697266 37.21957394409179,27.876200689697264 37.21957394409179,25.183100689697262 C37.21957394409179,22.489900689697265 35.03637394409179,20.306600689697262 32.3431739440918,20.306600689697262 C29.6500739440918,20.306600689697262 27.4667739440918,22.489900689697265 27.4667739440918,25.183100689697262 C27.4667739440918,27.876200689697264 29.6500739440918,30.059500689697266 32.3431739440918,30.059500689697266 z" fill="white" stroke="url(#paint2_linear_565_1092)" stroke-width="2" stroke-miterlimit="10" id="svg_3" class=""/><path d="M59.93107394409179,30.059500689697266 C62.6242739440918,30.059500689697266 64.8070739440918,27.876200689697264 64.8070739440918,25.183100689697262 C64.8070739440918,22.489900689697265 62.6242739440918,20.306600689697262 59.93107394409179,20.306600689697262 C57.23797394409179,20.306600689697262 55.0546739440918,22.489900689697265 55.0546739440918,25.183100689697262 C55.0546739440918,27.876200689697264 57.23797394409179,30.059500689697266 59.93107394409179,30.059500689697266 z" fill="white" stroke="url(#paint3_linear_565_1092)" stroke-width="2" stroke-miterlimit="10" id="svg_4" class=""/><path d="M46.302973944091804,43.151700689697265 C38.7545739440918,43.151700689697265 32.6757739440918,37.07290068969726 32.6757739440918,29.524500689697263 V7.480500689697266 H59.86337394409179 V29.524500689697263 C59.93017394409179,37.07290068969726 53.85137394409179,43.151700689697265 46.302973944091804,43.151700689697265 z" fill="white" stroke="url(#paint4_linear_565_1092)" stroke-width="2" stroke-miterlimit="10" id="svg_5" class=""/><path d="M50.77987394409179,16.297100689697267 C47.2394739440918,16.430700689697268 41.96227394409179,16.564400689697266 37.0190739440918,16.564400689697266 C35.6830739440918,16.564400689697266 34.41387394409179,16.965200689697262 33.345073944091794,17.700000689697262 L29.4706739440918,20.305100689697262 V11.754800689697262 C29.4706739440918,5.8096006896972625 34.2802739440918,1.0000006896972664 40.2254739440918,1.0000006896972664 H60.8666739440918 C62.73707394409179,1.0000006896972664 63.8730739440918,3.1376006896972655 62.73707394409179,4.674000689697266 L58.9962739440918,12.489600689697262 C57.7270739440918,14.827600689697263 53.5186739440918,16.230300689697266 50.77987394409179,16.297100689697267 z" fill="white" stroke="url(#paint5_linear_565_1092)" stroke-width="2" stroke-miterlimit="10" id="svg_6" class=""/><path d="M91.3940739440918,87.84030068969727 L86.7180739440918,63.525000689697265 C84.98107394409179,54.507000689697264 77.0990739440918,48.02730068969727 67.88007394409179,48.02730068969727 H55.3885739440918 C54.18617394409179,51.968500689697265 50.5789739440918,54.84100068969727 46.2369739440918,54.84100068969727 C41.8949739440918,54.84100068969727 38.287773944091796,51.968500689697265 37.0853739440918,48.02730068969727 H26.397373944091797 C16.1769739440918,48.02730068969727 7.3593739440918,55.30860068969727 5.422173944091796,65.32860068969727 L1.080173944091797,87.90730068969727 C0.545773944091799,90.77930068969727 2.7501739440917987,93.45130068969726 5.689373944091798,93.45130068969726 H86.78507394409179 C89.7240739440918,93.38430068969727 91.9280739440918,90.71230068969727 91.3940739440918,87.84030068969727 z" fill="white" stroke="url(#paint6_linear_565_1092)" stroke-width="2" stroke-miterlimit="10" id="svg_7" class=""/><path d="M71.28807394409179,98.73030068969726 H21.855973944091794 C21.254773944091795,98.73030068969726 20.787073944091794,98.26230068969727 20.787073944091794,97.66130068969727 V61.45560068969726 C20.787073944091794,60.85440068969727 21.254773944091795,60.386700689697264 21.855973944091794,60.386700689697264 H71.28807394409179 C71.88907394409179,60.386700689697264 72.3570739440918,60.85440068969727 72.3570739440918,61.45560068969726 V97.66130068969727 C72.3570739440918,98.26230068969727 71.88907394409179,98.73030068969726 71.28807394409179,98.73030068969726 z" fill="white" stroke="url(#paint7_linear_565_1092)" stroke-width="2" stroke-miterlimit="10" id="svg_8" class=""/><path d="M46.57057394409179,84.23330068969726 C49.1530739440918,84.23330068969726 51.24657394409179,82.13930068969727 51.24657394409179,79.55730068969727 C51.24657394409179,76.97430068969726 49.1530739440918,74.88130068969727 46.57057394409179,74.88130068969727 C43.988073944091795,74.88130068969727 41.8945739440918,76.97430068969726 41.8945739440918,79.55730068969727 C41.8945739440918,82.13930068969727 43.988073944091795,84.23330068969726 46.57057394409179,84.23330068969726 z" stroke="url(#paint8_linear_565_1092)" stroke-width="2" stroke-miterlimit="10" id="svg_9" class=""/></g></svg>