<svg width="71" height="80" viewBox="0 0 71 80" fill="none" xmlns="http://www.w3.org/2000/svg">
<path d="M51.3823 29.8952C51.3823 21.133 44.263 14.0137 35.5007 14.0137C26.7385 14.0137 19.6191 21.133 19.6191 29.8952C19.6191 38.6575 26.7385 45.7768 35.5007 45.7768C44.263 45.7768 51.3823 38.6575 51.3823 29.8952ZM35.5007 43.1527C28.176 43.1527 22.2433 37.1971 22.2433 29.8952C22.2433 22.5706 28.1988 16.6378 35.5007 16.6378C42.8026 16.6378 48.7582 22.5934 48.7582 29.8952C48.7582 37.1971 42.8254 43.1527 35.5007 43.1527Z" fill="url(#paint0_linear_565_1176)"/>
<path d="M58.427 45.5987L62.7103 42.8359C63.1526 42.5549 63.3854 42.0398 63.3156 41.5247L62.1516 33.4002L65.5504 25.9313C65.7599 25.4396 65.69 24.9011 65.3641 24.4796L60.0332 18.275L58.8693 10.1505C58.7994 9.63544 58.427 9.21399 57.9381 9.0501L50.093 6.75557L44.7388 0.504144C44.4129 0.106113 43.8542 -0.0577824 43.3654 0.082699L35.5203 2.37723L27.6753 0.0592858C27.1631 -0.104609 26.6277 0.0827001 26.3018 0.480731L20.9476 6.68533L13.1025 8.97986C12.6137 9.12034 12.2412 9.54179 12.1714 10.0803L11.0074 18.2048L5.65323 24.4094C5.32733 24.8074 5.23421 25.3694 5.44372 25.861L8.84247 33.33L7.67851 41.4545C7.60867 41.9696 7.84147 42.4847 8.28377 42.7656L12.6137 45.5753L0.136085 71.4707C-0.119985 71.9858 -0.00358807 72.618 0.392157 73.016C0.81118 73.4374 1.41644 73.5077 1.92858 73.2501L13.056 67.4436L16.4547 78.4479C16.6177 78.963 17.0833 79.3376 17.6187 79.3845H17.7351C18.2239 79.3845 18.7128 79.1035 18.9223 78.6352L29.7937 56.7201L34.7521 59.9278C34.9616 60.0683 35.241 60.1385 35.4738 60.1385C35.7298 60.1385 35.9626 60.0683 36.1954 59.9278L41.2004 56.6967L52.0718 78.6587C52.3046 79.1269 52.7701 79.4079 53.259 79.4079H53.3754C53.9341 79.3611 54.3764 78.9865 54.5393 78.4714L57.9381 67.467L69.0655 73.3204C69.5776 73.5779 70.2062 73.5077 70.6019 73.0862C71.0209 72.6648 71.1141 72.056 70.858 71.5409L58.427 45.5987ZM17.9912 74.4676L15.1046 65.1256C14.9882 64.751 14.7088 64.4232 14.3363 64.2827C13.9639 64.1188 13.5448 64.1422 13.1957 64.3296L4.20993 69.0123L14.7786 47.0503L15.058 47.2376L18.4567 54.7066C18.6663 55.1983 19.1551 55.5026 19.6905 55.5026H27.3959L17.9912 74.4676ZM35.4505 57.2118L28.9789 53.0208C28.7694 52.8803 28.5133 52.8101 28.2572 52.8101H20.5519L17.3626 45.7626C17.2462 45.5285 17.0833 45.3411 16.8738 45.2007L10.4022 41.0096L11.4963 33.33C11.5428 33.0724 11.4963 32.8149 11.3799 32.5807L8.19065 25.5333L13.2422 19.6799C13.4052 19.4926 13.5216 19.2584 13.5681 18.9775L14.6622 11.2978L22.065 9.12034C22.3211 9.0501 22.5306 8.90962 22.6935 8.6989L27.7218 2.8455L35.1013 5.04638C35.3574 5.11662 35.6134 5.11662 35.8695 5.04638L43.249 2.86891L48.2773 8.74572C48.4402 8.93303 48.673 9.07351 48.9058 9.16717L56.2853 11.368L57.3561 19.0477C57.4027 19.3052 57.4958 19.5394 57.682 19.7501L62.7103 25.6035L59.4978 32.651C59.3814 32.8851 59.3581 33.1427 59.3814 33.4002L60.4522 41.0799L53.9806 45.2475C53.7711 45.388 53.5849 45.5753 53.4918 45.8094L50.2793 52.8569H42.5739C42.3178 52.8569 42.0617 52.9271 41.8522 53.0676L35.4505 57.2118ZM57.7286 64.3296C57.3794 64.1422 56.9604 64.1422 56.5879 64.2827C56.2154 64.4466 55.9594 64.751 55.8197 65.1256L52.9331 74.4676L43.5283 55.5026H51.1639C51.676 55.5026 52.1649 55.1983 52.3977 54.7066L55.7964 47.2376L56.1223 47.0269L66.691 68.9889L57.7286 64.3296Z" fill="url(#paint1_linear_565_1176)"/>
<defs>
<linearGradient id="paint0_linear_565_1176" x1="19.6081" y1="29.9019" x2="51.3894" y2="29.9019" gradientUnits="userSpaceOnUse">
<stop stop-color="#007F61"/>
<stop offset="1" stop-color="#39C655"/>
</linearGradient>
<linearGradient id="paint1_linear_565_1176" x1="-0.0460967" y1="39.7521" x2="71.0104" y2="39.7521" gradientUnits="userSpaceOnUse">
<stop stop-color="#007F61"/>
<stop offset="1" stop-color="#39C655"/>
</linearGradient>
</defs>
</svg>
