<svg width="75" height="75" viewBox="0 0 75 75" fill="none" xmlns="http://www.w3.org/2000/svg">
<path d="M37.5 75C58.1438 75 75 58.1438 75 37.5C75 16.8562 58.1438 0 37.5 0C16.8562 0 0 16.8562 0 37.5C0 58.1438 16.8562 75 37.5 75ZM37.5 2.80936C56.6137 2.80936 72.1906 18.4114 72.1906 37.5C72.1906 56.5886 56.5886 72.1906 37.5 72.1906C18.4114 72.1906 2.80936 56.6137 2.80936 37.5C2.80936 18.3863 18.4114 2.80936 37.5 2.80936Z" fill="url(#paint0_linear_565_1168)"/>
<path d="M27.8186 49.4147C27.4925 49.4147 27.1665 49.2893 26.9407 49.0384C26.439 48.5368 26.439 47.7592 26.9407 47.2575L36.3972 37.801V18.4866C36.3972 17.7843 36.9491 17.2324 37.6514 17.2324C38.3537 17.2324 38.9056 17.7843 38.9056 18.4866V38.8545L28.7216 49.0384C28.4708 49.2893 28.1447 49.4147 27.8186 49.4147Z" fill="url(#paint1_linear_565_1168)"/>
<defs>
<linearGradient id="paint0_linear_565_1168" x1="0.0058194" y1="37.5056" x2="75.0159" y2="37.5056" gradientUnits="userSpaceOnUse">
<stop stop-color="#007F61"/>
<stop offset="1" stop-color="#39C655"/>
</linearGradient>
<linearGradient id="paint1_linear_565_1168" x1="26.5649" y1="33.3241" x2="38.8852" y2="33.3241" gradientUnits="userSpaceOnUse">
<stop stop-color="#007F61"/>
<stop offset="1" stop-color="#39C655"/>
</linearGradient>
</defs>
</svg>
