<svg width="109" height="83" viewBox="0 0 109 83" fill="none" xmlns="http://www.w3.org/2000/svg">
<path d="M96.5975 63.9639H11.075C10.0042 63.9639 9.07617 63.1072 9.07617 61.965V2.64187C9.07617 1.78521 9.79005 1 10.7181 1H97.0258C97.8111 1 98.4536 1.64249 98.4536 2.42775V62.1792C98.4536 63.1787 97.6683 63.9639 96.5975 63.9639Z" fill="white" stroke="url(#paint0_linear_856_1078)" stroke-width="2" stroke-miterlimit="10"/>
<path d="M49.9824 27.1271V23.986C49.9824 22.13 51.1246 20.6309 52.5524 20.6309H54.9082C56.3359 20.6309 57.4781 22.13 57.4781 23.986V27.1271" fill="white"/>
<path d="M49.9824 27.1271V23.986C49.9824 22.13 51.1246 20.6309 52.5524 20.6309H54.9082C56.3359 20.6309 57.4781 22.13 57.4781 23.986V27.1271" stroke="url(#paint1_linear_856_1078)" stroke-width="2" stroke-miterlimit="10"/>
<path d="M72.2559 43.9746H88.2467" stroke="url(#paint2_linear_856_1078)" stroke-width="2" stroke-miterlimit="10" stroke-linecap="round"/>
<path d="M18.6426 44.0469H34.7048" stroke="url(#paint3_linear_856_1078)" stroke-width="2" stroke-miterlimit="10" stroke-linecap="round"/>
<path d="M71.9707 34.8376H79.2522L84.6777 29.4121H91.8165" fill="white"/>
<path d="M71.9707 34.8376H79.2522L84.6777 29.4121H91.8165" stroke="url(#paint4_linear_856_1078)" stroke-width="2" stroke-miterlimit="10" stroke-linecap="round"/>
<path d="M72.6855 23.2715H79.8957L84.8928 18.3457H91.4605" fill="white"/>
<path d="M72.6855 23.2715H79.8957L84.8928 18.3457H91.4605" stroke="url(#paint5_linear_856_1078)" stroke-width="2" stroke-miterlimit="10" stroke-linecap="round"/>
<path d="M34.42 35.695H27.1385L21.6416 30.2695H14.5742" fill="white"/>
<path d="M34.42 35.695H27.1385L21.6416 30.2695H14.5742" stroke="url(#paint6_linear_856_1078)" stroke-width="2" stroke-miterlimit="10" stroke-linecap="round"/>
<path d="M34.4206 23.2725H27.139L22.1419 18.2754H15.5742" fill="white"/>
<path d="M34.4206 23.2725H27.139L22.1419 18.2754H15.5742" stroke="url(#paint7_linear_856_1078)" stroke-width="2" stroke-miterlimit="10" stroke-linecap="round"/>
<path d="M106.022 81.8828H2.00974C1.29587 81.8828 0.796153 81.0975 1.0817 80.455L9.14852 63.1078C9.2199 62.8937 9.43407 62.8223 9.64823 62.8223H98.3118C98.5259 62.8223 98.6687 62.9651 98.8115 63.1078L106.95 80.5978C107.164 81.2403 106.664 81.8828 106.022 81.8828Z" fill="white" stroke="url(#paint8_linear_856_1078)" stroke-width="2" stroke-miterlimit="10"/>
<path d="M68.9719 71.7441H38.418" stroke="url(#paint9_linear_856_1078)" stroke-width="2" stroke-miterlimit="10" stroke-linecap="round"/>
<path d="M54.6942 36.9062H52.6953V42.2603H54.6942V36.9062Z" fill="#107E5F"/>
<path d="M53.6961 37.9079C54.8001 37.9079 55.695 37.0129 55.695 35.909C55.695 34.805 54.8001 33.9102 53.6961 33.9102C52.5922 33.9102 51.6973 34.805 51.6973 35.909C51.6973 37.0129 52.5922 37.9079 53.6961 37.9079Z" fill="#107E5F"/>
<path d="M60.9768 42.7618H46.5565C45.8426 42.7618 45.2715 42.1907 45.2715 41.4768V29.1267C45.2715 28.4128 45.8426 27.8418 46.5565 27.8418H60.9768C61.6907 27.8418 62.2618 28.4128 62.2618 29.1267V41.4768C62.3331 42.1907 61.6907 42.7618 60.9768 42.7618Z" stroke="url(#paint10_linear_856_1078)" stroke-width="2" stroke-miterlimit="10"/>
<path d="M69.9015 51.1858H37.1345C36.0637 51.1858 35.207 50.3292 35.207 49.2584V14.7067C35.207 13.6359 36.0637 12.7793 37.1345 12.7793H69.9728C71.0437 12.7793 71.9003 13.6359 71.9003 14.7067V49.187C71.9003 50.3292 70.9723 51.1858 69.9015 51.1858Z" stroke="url(#paint11_linear_856_1078)" stroke-width="2" stroke-miterlimit="10"/>
<defs>
<linearGradient id="paint0_linear_856_1078" x1="8.36229" y1="32.482" x2="99.1675" y2="32.482" gradientUnits="userSpaceOnUse">
<stop stop-color="#007F61"/>
<stop offset="1" stop-color="#39C655"/>
</linearGradient>
<linearGradient id="paint1_linear_856_1078" x1="49.2685" y1="23.5221" x2="58.192" y2="23.5221" gradientUnits="userSpaceOnUse">
<stop stop-color="#007F61"/>
<stop offset="1" stop-color="#39C655"/>
</linearGradient>
<linearGradient id="paint2_linear_856_1078" x1="-nan" y1="-nan" x2="-nan" y2="-nan" gradientUnits="userSpaceOnUse">
<stop stop-color="#007F61"/>
<stop offset="1" stop-color="#39C655"/>
</linearGradient>
<linearGradient id="paint3_linear_856_1078" x1="-nan" y1="-nan" x2="-nan" y2="-nan" gradientUnits="userSpaceOnUse">
<stop stop-color="#007F61"/>
<stop offset="1" stop-color="#39C655"/>
</linearGradient>
<linearGradient id="paint4_linear_856_1078" x1="71.245" y1="32.1248" x2="92.5186" y2="32.1248" gradientUnits="userSpaceOnUse">
<stop stop-color="#007F61"/>
<stop offset="1" stop-color="#39C655"/>
</linearGradient>
<linearGradient id="paint5_linear_856_1078" x1="71.9717" y1="20.8086" x2="92.1744" y2="20.8086" gradientUnits="userSpaceOnUse">
<stop stop-color="#007F61"/>
<stop offset="1" stop-color="#39C655"/>
</linearGradient>
<linearGradient id="paint6_linear_856_1078" x1="13.8603" y1="32.9823" x2="35.1339" y2="32.9823" gradientUnits="userSpaceOnUse">
<stop stop-color="#007F61"/>
<stop offset="1" stop-color="#39C655"/>
</linearGradient>
<linearGradient id="paint7_linear_856_1078" x1="14.8603" y1="20.774" x2="35.1344" y2="20.774" gradientUnits="userSpaceOnUse">
<stop stop-color="#007F61"/>
<stop offset="1" stop-color="#39C655"/>
</linearGradient>
<linearGradient id="paint8_linear_856_1078" x1="0.286088" y1="72.3525" x2="107.714" y2="72.3525" gradientUnits="userSpaceOnUse">
<stop stop-color="#007F61"/>
<stop offset="1" stop-color="#39C655"/>
</linearGradient>
<linearGradient id="paint9_linear_856_1078" x1="-nan" y1="-nan" x2="-nan" y2="-nan" gradientUnits="userSpaceOnUse">
<stop stop-color="#007F61"/>
<stop offset="1" stop-color="#39C655"/>
</linearGradient>
<linearGradient id="paint10_linear_856_1078" x1="44.5576" y1="35.3018" x2="62.9811" y2="35.3018" gradientUnits="userSpaceOnUse">
<stop stop-color="#007F61"/>
<stop offset="1" stop-color="#39C655"/>
</linearGradient>
<linearGradient id="paint11_linear_856_1078" x1="34.4932" y1="31.9826" x2="72.6142" y2="31.9826" gradientUnits="userSpaceOnUse">
<stop stop-color="#007F61"/>
<stop offset="1" stop-color="#39C655"/>
</linearGradient>
</defs>
</svg>
