<svg viewBox="0 0 56 56" fill="none" xmlns="http://www.w3.org/2000/svg"><path d="M50.149 15.417L47.6 8.96a.835.835 0 00-1.294-.56l-6.854 2.531a.84.84 0 00.56 1.574L45.13 10.6l-8.544 18.8-4.363-7.426a.84.84 0 00-1.484.067l-6.277 13.396-5.052-9.677a.801.801 0 00-.767-.454.84.84 0 00-.722.454L10.08 42.9V9.24a.84.84 0 00-1.68 0v37.576a.835.835 0 000 .095v.157l.039.078.04.068.05.067.05.061.062.056.061.05.084.051.05.028.13.045h37.715a.84.84 0 000-1.68H10.546l8.17-17.847 5.04 9.676a.84.84 0 001.506-.033l6.323-13.485 4.373 7.442a.84.84 0 001.49-.078l9.257-20.305 1.881 4.77a.84.84 0 001.563-.615z" fill="#27AE60"/></svg>