<svg viewBox="0 0 56 56" fill="none" xmlns="http://www.w3.org/2000/svg"><path d="M32.495 39.058l8.366-13.453a.757.757 0 00.068-.137 14.897 14.897 0 002.208-7.795c0-8.243-6.707-14.95-14.95-14.95-8.243 0-14.95 6.707-14.95 14.95 0 2.748.764 5.44 2.21 7.799a.865.865 0 00.06.12l8.066 13.5c-6.262.885-10.38 3.46-10.38 6.583 0 3.87 6.577 6.9 14.972 6.9s14.971-3.031 14.971-6.9c0-3.138-4.309-5.77-10.642-6.617zM16.95 24.718a13.23 13.23 0 01-2.039-7.045c0-7.32 5.955-13.276 13.276-13.276 7.32 0 13.276 5.956 13.276 13.276a13.23 13.23 0 01-2.038 7.045.803.803 0 00-.07.139l-8.839 14.211c-.132.204-.159.25-.321.517l-2.232 3.589-10.939-18.306a.841.841 0 00-.075-.15zM28.165 50.9c-7.836 0-13.297-2.755-13.297-5.226 0-2.244 4.113-4.357 9.644-5.012l2.718 4.548c.15.251.42.406.711.408h.007c.29 0 .558-.15.711-.395l2.857-4.594c5.62.609 9.946 2.776 9.946 5.045 0 2.472-5.46 5.226-13.297 5.226z" fill="#27AE60"/><path d="M33.6 17.673a5.442 5.442 0 00-5.437-5.436 5.442 5.442 0 00-5.436 5.436 5.442 5.442 0 005.436 5.436 5.442 5.442 0 005.436-5.436zm-9.198 0a3.766 3.766 0 013.761-3.762 3.766 3.766 0 013.762 3.762 3.766 3.766 0 01-3.762 3.762 3.766 3.766 0 01-3.761-3.762z" fill="#27AE60"/></svg>