<svg viewBox="0 0 56 56" fill="none" xmlns="http://www.w3.org/2000/svg"><path d="M49.004 17.903L28.489 2.933a.832.832 0 00-.987 0l-19.96 14.97a.83.83 0 00-.333.666V47.4a.832.832 0 00.832.837h40.475a.831.831 0 00.832-.831V18.574a.831.831 0 00-.344-.67zM41.585 36.04h-8.871v-8.316h8.871v8.316zM31.051 46.575h-8.317v-8.871h8.317v8.871zm1.663-8.871h8.871v8.871h-8.871v-8.871zm8.871-11.644h-9.703a.832.832 0 00-.831.832v9.148h-9.149a.832.832 0 00-.832.832v9.703h-5.544V22.178h26.06v3.881zm6.1 20.515h-4.436V21.346a.832.832 0 00-.832-.831H14.694a.832.832 0 00-.832.831v25.228h-4.99V18.99L28.007 4.64l19.677 14.355v27.58z" fill="#27AE60"/></svg>