<svg viewBox="0 0 28 13" fill="none" xmlns="http://www.w3.org/2000/svg"><path d="M.205 12h7.34v-1.25H2.136v-.09L4.75 7.863c2-2.142 2.59-3.142 2.59-4.432 0-1.796-1.454-3.227-3.5-3.227C1.802.205.25 1.59.25 3.636h1.34c0-1.324.859-2.204 2.205-2.204 1.262 0 2.228.773 2.228 2 0 1.074-.63 1.87-1.978 3.34l-3.84 4.205V12zm13.242.16c2.569 0 4.046-2.177 4.046-5.978 0-3.773-1.5-5.977-4.045-5.977-2.546 0-4.046 2.204-4.046 5.977 0 3.801 1.477 5.977 4.046 5.977zm0-1.25c-1.693 0-2.681-1.7-2.681-4.728 0-3.023 1-4.75 2.681-4.75 1.682 0 2.682 1.727 2.682 4.75 0 3.028-.988 4.727-2.682 4.727zm9.76 1.25c2.569 0 4.046-2.177 4.046-5.978 0-3.773-1.5-5.977-4.046-5.977-2.545 0-4.045 2.204-4.045 5.977 0 3.801 1.477 5.977 4.046 5.977zm0-1.25c-1.693 0-2.681-1.7-2.681-4.728 0-3.023 1-4.75 2.681-4.75 1.682 0 2.682 1.727 2.682 4.75 0 3.028-.988 4.727-2.681 4.727z" fill="#4F4F4F"/></svg>