<svg width="121" height="24" viewBox="0 0 121 24" fill="none" xmlns="http://www.w3.org/2000/svg">
<circle cx="5" cy="12" r="5" fill="#9B51E0"/>
<path d="M13.125 13C13.125 6.92487 17.6954 2 23.3333 2H94.7917C100.43 2 105 6.92487 105 13C105 19.0751 100.43 24 94.7917 24H23.3333C17.6954 24 13.125 19.0751 13.125 13Z" fill="#9B51E0"/>
<path d="M7 11.3097H8.14153C10.7037 11.3097 13.2849 9.86314 15.2651 8.11111L15.8554 17.2778L7 11.3097Z" fill="#9B51E0"/>
<path d="M22.88 16.688H25.552V8.448L22.88 10.352V8.72L25.584 6.8H27.088V16.688H29.28V18H22.88V16.688ZM30.1656 16.768L34.6456 12.88C34.987 12.592 35.2643 12.3307 35.4776 12.096C35.7016 11.8613 35.8776 11.6427 36.0056 11.44C36.1336 11.2267 36.219 11.0187 36.2616 10.816C36.315 10.6133 36.3416 10.3947 36.3416 10.16C36.3416 9.53067 36.155 9.01333 35.7816 8.608C35.4083 8.192 34.8963 7.984 34.2456 7.984C33.467 7.984 32.8696 8.19733 32.4536 8.624C32.0376 9.04 31.8296 9.632 31.8296 10.4H30.3256C30.3256 9.856 30.4163 9.35467 30.5976 8.896C30.7896 8.42667 31.0563 8.02667 31.3976 7.696C31.7496 7.36533 32.1656 7.10933 32.6456 6.928C33.1256 6.736 33.659 6.64 34.2456 6.64C34.811 6.64 35.3176 6.73067 35.7656 6.912C36.2136 7.08267 36.5923 7.328 36.9016 7.648C37.211 7.95733 37.4456 8.32533 37.6056 8.752C37.7656 9.17867 37.8456 9.648 37.8456 10.16C37.8456 10.544 37.787 10.9013 37.6696 11.232C37.5523 11.5627 37.387 11.8773 37.1736 12.176C36.971 12.4747 36.7203 12.768 36.4216 13.056C36.1336 13.3333 35.8136 13.6213 35.4616 13.92L32.1176 16.688H38.0056V18H30.1656V16.768ZM46.9669 18.16C46.3589 18.16 45.8309 18.08 45.3829 17.92C44.9349 17.7493 44.5562 17.5307 44.2469 17.264C43.9482 16.9867 43.7189 16.6773 43.5589 16.336C43.3989 15.9947 43.3082 15.6427 43.2869 15.28H44.7909C44.8442 15.6853 45.0575 16.0427 45.4309 16.352C45.8149 16.6613 46.3269 16.816 46.9669 16.816C47.6922 16.816 48.2629 16.592 48.6789 16.144C49.0949 15.6853 49.3029 15.0507 49.3029 14.24C49.3029 13.7813 49.2335 13.3867 49.0949 13.056C48.9669 12.7253 48.7909 12.4587 48.5669 12.256C48.3535 12.0533 48.1082 11.904 47.8309 11.808C47.5535 11.712 47.2655 11.664 46.9669 11.664C46.3909 11.664 45.9375 11.7707 45.6069 11.984C45.2869 12.1973 45.0415 12.4427 44.8709 12.72H43.5269V6.8H50.1669V8.112H45.0309V11.232C45.5855 10.624 46.3109 10.32 47.2069 10.32C48.3162 10.32 49.1909 10.656 49.8309 11.328C50.4815 12 50.8069 12.9707 50.8069 14.24C50.8069 14.8373 50.7109 15.3813 50.5189 15.872C50.3375 16.352 50.0762 16.7627 49.7349 17.104C49.4042 17.4453 48.9989 17.7067 48.5189 17.888C48.0495 18.0693 47.5322 18.16 46.9669 18.16ZM56.3281 18.16C55.7841 18.16 55.2668 18.0693 54.7761 17.888C54.2961 17.7067 53.8748 17.3973 53.5121 16.96C53.1495 16.512 52.8615 15.92 52.6481 15.184C52.4348 14.4373 52.3281 13.5093 52.3281 12.4V12.08C52.3281 11.0453 52.4348 10.1813 52.6481 9.488C52.8615 8.79467 53.1495 8.24 53.5121 7.824C53.8748 7.39733 54.2961 7.09333 54.7761 6.912C55.2668 6.73067 55.7841 6.64 56.3281 6.64C56.8721 6.64 57.3841 6.73067 57.8641 6.912C58.3548 7.09333 58.7815 7.39733 59.1441 7.824C59.5068 8.24 59.7948 8.79467 60.0081 9.488C60.2215 10.1813 60.3281 11.0453 60.3281 12.08V12.4C60.3281 13.5093 60.2215 14.4373 60.0081 15.184C59.7948 15.92 59.5068 16.512 59.1441 16.96C58.7815 17.3973 58.3548 17.7067 57.8641 17.888C57.3841 18.0693 56.8721 18.16 56.3281 18.16ZM56.3281 16.848C56.6588 16.848 56.9735 16.7893 57.2721 16.672C57.5815 16.544 57.8481 16.32 58.0721 16C58.3068 15.6693 58.4881 15.216 58.6161 14.64C58.7548 14.064 58.8241 13.3173 58.8241 12.4V12.08C58.8241 11.248 58.7548 10.5653 58.6161 10.032C58.4881 9.49867 58.3068 9.07733 58.0721 8.768C57.8481 8.45867 57.5815 8.24533 57.2721 8.128C56.9735 8.01067 56.6588 7.952 56.3281 7.952C55.9868 7.952 55.6668 8.01067 55.3681 8.128C55.0695 8.24533 54.8028 8.45867 54.5681 8.768C54.3441 9.07733 54.1628 9.49867 54.0241 10.032C53.8961 10.5653 53.8321 11.248 53.8321 12.08V12.4C53.8321 13.3173 53.8961 14.064 54.0241 14.64C54.1628 15.216 54.3441 15.6693 54.5681 16C54.8028 16.32 55.0695 16.544 55.3681 16.672C55.6668 16.7893 55.9868 16.848 56.3281 16.848ZM66.01 18.16C65.466 18.16 64.9487 18.0693 64.458 17.888C63.978 17.7067 63.5567 17.3973 63.194 16.96C62.8313 16.512 62.5433 15.92 62.33 15.184C62.1167 14.4373 62.01 13.5093 62.01 12.4V12.08C62.01 11.0453 62.1167 10.1813 62.33 9.488C62.5433 8.79467 62.8313 8.24 63.194 7.824C63.5567 7.39733 63.978 7.09333 64.458 6.912C64.9487 6.73067 65.466 6.64 66.01 6.64C66.554 6.64 67.066 6.73067 67.546 6.912C68.0367 7.09333 68.4633 7.39733 68.826 7.824C69.1887 8.24 69.4767 8.79467 69.69 9.488C69.9033 10.1813 70.01 11.0453 70.01 12.08V12.4C70.01 13.5093 69.9033 14.4373 69.69 15.184C69.4767 15.92 69.1887 16.512 68.826 16.96C68.4633 17.3973 68.0367 17.7067 67.546 17.888C67.066 18.0693 66.554 18.16 66.01 18.16ZM66.01 16.848C66.3407 16.848 66.6553 16.7893 66.954 16.672C67.2633 16.544 67.53 16.32 67.754 16C67.9887 15.6693 68.17 15.216 68.298 14.64C68.4367 14.064 68.506 13.3173 68.506 12.4V12.08C68.506 11.248 68.4367 10.5653 68.298 10.032C68.17 9.49867 67.9887 9.07733 67.754 8.768C67.53 8.45867 67.2633 8.24533 66.954 8.128C66.6553 8.01067 66.3407 7.952 66.01 7.952C65.6687 7.952 65.3487 8.01067 65.05 8.128C64.7513 8.24533 64.4847 8.45867 64.25 8.768C64.026 9.07733 63.8447 9.49867 63.706 10.032C63.578 10.5653 63.514 11.248 63.514 12.08V12.4C63.514 13.3173 63.578 14.064 63.706 14.64C63.8447 15.216 64.026 15.6693 64.25 16C64.4847 16.32 64.7513 16.544 65.05 16.672C65.3487 16.7893 65.6687 16.848 66.01 16.848ZM77.7079 10.768H74.8119V9.52H82.0119V10.768H79.1159V18H77.7079V10.768ZM82.9019 18.16C82.5925 18.16 82.3259 18.0533 82.1019 17.84C81.8885 17.616 81.7819 17.3493 81.7819 17.04C81.7819 16.72 81.8885 16.4533 82.1019 16.24C82.3259 16.0267 82.5925 15.92 82.9019 15.92C83.2112 15.92 83.4725 16.0267 83.6859 16.24C83.9099 16.4533 84.0219 16.72 84.0219 17.04C84.0219 17.3493 83.9099 17.616 83.6859 17.84C83.4725 18.0533 83.2112 18.16 82.9019 18.16ZM90.0987 9.52H91.4107V11.12C91.6987 10.5547 92.0987 10.1227 92.6107 9.824C93.1334 9.51467 93.7361 9.36 94.4187 9.36C95.4854 9.36 96.3387 9.712 96.9787 10.416C97.6187 11.1093 97.9387 12.144 97.9387 13.52V13.84C97.9387 14.5653 97.8534 15.2 97.6827 15.744C97.5121 16.2773 97.2721 16.7253 96.9627 17.088C96.6534 17.44 96.2801 17.7067 95.8427 17.888C95.4161 18.0693 94.9414 18.16 94.4187 18.16C93.6934 18.16 93.0854 18 92.5947 17.68C92.1147 17.36 91.7521 16.96 91.5067 16.48V21.2H90.0987V9.52ZM94.0987 16.912C94.4401 16.912 94.7601 16.848 95.0587 16.72C95.3574 16.5813 95.6134 16.384 95.8267 16.128C96.0507 15.872 96.2214 15.552 96.3387 15.168C96.4667 14.784 96.5307 14.3413 96.5307 13.84V13.52C96.5307 13.0613 96.4667 12.6507 96.3387 12.288C96.2214 11.9253 96.0507 11.6213 95.8267 11.376C95.6134 11.12 95.3574 10.928 95.0587 10.8C94.7601 10.672 94.4401 10.608 94.0987 10.608C93.7147 10.608 93.3627 10.672 93.0427 10.8C92.7227 10.9173 92.4507 11.088 92.2267 11.312C92.0027 11.5253 91.8267 11.7813 91.6987 12.08C91.5707 12.3787 91.5067 12.6987 91.5067 13.04V14.32C91.5067 14.704 91.5707 15.056 91.6987 15.376C91.8267 15.696 92.0027 15.968 92.2267 16.192C92.4507 16.416 92.7227 16.592 93.0427 16.72C93.3627 16.848 93.7147 16.912 94.0987 16.912ZM100.51 18.16C100.201 18.16 99.934 18.0533 99.71 17.84C99.4967 17.616 99.39 17.3493 99.39 17.04C99.39 16.72 99.4967 16.4533 99.71 16.24C99.934 16.0267 100.201 15.92 100.51 15.92C100.819 15.92 101.081 16.0267 101.294 16.24C101.518 16.4533 101.63 16.72 101.63 17.04C101.63 17.3493 101.518 17.616 101.294 17.84C101.081 18.0533 100.819 18.16 100.51 18.16Z" fill="#F2F2F2"/>
</svg>
