<svg width="159" height="51" viewBox="0 0 159 51" fill="none" xmlns="http://www.w3.org/2000/svg">
<path fill-rule="evenodd" clip-rule="evenodd" d="M62.3072 10.9595H67.7261V18.1314H67.5666H65.4948V12.7126H64.2198V15.5814C64.2198 15.7407 64.2198 15.9002 64.2198 16.0595C64.2198 16.2189 64.2198 16.3783 64.2198 16.5376C64.0604 17.0158 63.901 17.3345 63.5822 17.6533C63.2635 17.972 62.626 18.1314 61.6697 18.1314H61.5104C61.351 18.1314 61.351 18.1314 61.1916 18.1314C61.0322 18.1314 61.0322 18.1314 60.8728 18.1314H60.7135H60.5541V16.3783H60.7135H60.8728H61.0323C61.5104 16.3783 61.6698 16.2189 61.8291 15.9001C61.9885 15.5814 61.9885 15.2626 61.9885 14.7845L62.3072 10.9595ZM69.0011 10.9595H70.9136V15.1033L73.6229 10.9595H73.7823H75.6949V18.1314H75.5354H73.6229V13.9876L71.0729 18.1314H70.9136H68.8416L69.0011 10.9595ZM76.9699 18.1314V10.9595H77.1292H81.4324V12.7126H79.0417V18.1314H76.9699ZM81.4324 18.1314L83.9824 10.9595H84.1418H86.5324L89.0824 18.1314H88.9231H86.8512L86.5324 16.8564H84.1418L83.823 18.1314H83.6637H81.4324ZM85.2574 12.872L84.4606 15.422H86.0543L85.2574 12.872ZM61.0509 29.6065V22.4346H61.2104H67.5854V29.6065H67.2667H65.1948V24.1877H62.9635V29.6065H62.8041H61.0509ZM68.7011 29.6065V22.4346H68.8604H73.1636V24.1877H70.9323V25.1439H73.0042V26.7377H70.9323V27.8534H73.1636V29.6065H73.0042H68.7011ZM74.1198 29.6065V22.4346H74.2792H77.3073C78.1042 22.4346 78.5824 22.5939 79.0605 22.9127C79.3793 23.2314 79.698 23.5502 79.8574 24.0283C79.8574 24.1877 80.0167 24.3471 80.0167 24.5064C80.0167 24.6658 80.0167 24.8252 80.0167 24.8252V25.1439C80.0167 25.3033 80.0168 25.4627 79.8574 25.6221C79.698 25.9409 79.5387 26.419 79.0605 26.7377C78.5824 27.0565 78.1042 27.2159 77.3073 27.2159H76.3511V29.6065H76.1917H74.1198ZM76.3511 24.0283V25.6221H76.8292C77.148 25.6221 77.3074 25.6221 77.4668 25.4627C77.6261 25.3033 77.6261 25.3033 77.7854 25.1439V24.9846V24.8252V24.6658V24.5064C77.7854 24.3471 77.6261 24.1877 77.4668 24.1877C77.3074 24.0283 77.148 24.0283 76.8292 24.0283H76.3511ZM80.8136 29.6065V22.4346H80.973H85.2761V24.1877H83.0449V25.1439H85.1168V26.7377H83.0449V27.8534H85.2761V29.6065H85.1168H80.8136ZM86.2325 29.6065V22.4346H86.3918H89.42C90.2169 22.4346 90.695 22.5939 91.1731 22.9127C91.4918 23.2314 91.8106 23.5502 91.97 24.0283C91.97 24.1877 92.1293 24.3471 92.1293 24.5064C92.1293 24.6658 92.1293 24.8252 92.1293 24.8252V25.1439C92.1293 25.3033 92.1293 25.4627 91.97 25.6221C91.8106 25.9409 91.6512 26.419 91.1731 26.7377C90.695 27.0565 90.2169 27.2159 89.42 27.2159H88.4637V29.6065H88.3043H86.2325ZM88.4637 24.0283V25.6221H88.9418C89.2605 25.6221 89.4199 25.6221 89.5793 25.4627C89.7387 25.3033 89.7387 25.3033 89.8981 25.1439V24.9846V24.8252V24.6658V24.5064C89.8981 24.3471 89.7387 24.1877 89.5793 24.1877C89.4199 24.0283 89.2605 24.0283 88.9418 24.0283H88.4637ZM92.2887 29.6065L94.8387 22.4346H94.9981H97.3888L99.9388 29.6065H99.7794H97.5481L97.2294 28.3315H94.8387L94.5199 29.6065H94.3606H92.2887ZM96.1137 24.3471L95.3168 26.8971H96.9106L96.1137 24.3471ZM100.417 29.6065V22.4346H100.576H105.836V24.1877H102.489V25.3033H103.604C103.764 25.3033 103.923 25.3033 104.242 25.3033C104.401 25.3033 104.72 25.3033 105.039 25.4627C105.358 25.6221 105.836 25.7815 106.154 26.1002C106.473 26.419 106.633 26.8971 106.633 27.5346C106.633 28.1721 106.473 28.6503 106.154 28.969C105.836 29.2878 105.517 29.4471 105.039 29.6065C104.72 29.7659 104.561 29.7659 104.242 29.7659C104.083 29.7659 103.764 29.7659 103.604 29.7659H103.445H100.417V29.6065ZM102.489 28.1721H103.286C103.604 28.1721 103.764 28.1721 104.083 28.0127C104.242 27.8534 104.401 27.694 104.401 27.3752C104.401 27.0565 104.242 26.8971 104.083 26.7377C103.923 26.5783 103.604 26.5784 103.286 26.5784H102.489V28.1721ZM110.776 29.9252C109.501 29.9252 108.545 29.6065 107.908 28.8096C107.27 28.0127 106.951 27.2158 106.951 26.1002C106.951 25.144 107.27 24.1877 107.908 23.3908C108.545 22.594 109.501 22.2752 110.776 22.2752H110.936C112.211 22.2752 113.167 22.594 113.805 23.3908C114.442 24.1877 114.761 24.9846 114.761 26.1002C114.761 27.0565 114.442 28.0127 113.805 28.8096C113.167 29.4471 112.211 29.7659 110.776 29.9252ZM110.936 28.1721H111.095H111.254C111.573 28.0128 111.892 27.8533 112.211 27.5346C112.53 27.2158 112.689 26.7377 112.689 26.1002C112.689 25.4627 112.53 24.9846 112.211 24.6658C111.892 24.3471 111.573 24.1877 111.254 24.0283H111.095H110.936H110.776C110.617 24.0283 110.617 24.0283 110.617 24.0283C110.298 24.1877 109.979 24.3471 109.82 24.6658C109.501 24.9846 109.501 25.4627 109.501 26.1002C109.501 26.7377 109.661 27.2158 109.82 27.5346C110.139 27.8533 110.298 28.0128 110.617 28.1721H110.776C110.776 28.1721 110.776 28.1721 110.936 28.1721ZM116.673 29.6065V24.1877H115.08V22.4346H115.239H120.339V24.1877H118.745V29.6065H118.586H116.673ZM124.801 29.6065V26.8971C124.642 26.8971 124.323 26.8971 124.164 26.8971C124.005 26.8971 123.845 26.8971 123.845 26.8971H123.686H123.526H123.367C122.251 26.8971 121.455 26.7377 121.295 26.2596C120.976 25.7815 120.817 25.3033 120.817 24.8252V24.6658V24.5064V22.4346H120.976H123.048V24.1877C123.048 24.5065 123.048 24.6659 123.208 24.9846C123.367 25.144 123.526 25.3033 124.164 25.3033H124.323C124.483 25.3033 124.642 25.3033 124.801 25.3033V22.594H124.961H127.033V29.7659H126.873H124.801V29.6065ZM128.308 22.4346H130.22V26.5784L132.93 22.4346H133.089H135.002V29.6065H134.842H132.93V25.4627L130.38 29.6065H130.22H128.148L128.308 22.4346ZM136.277 29.6065V22.4346H136.436H138.508V25.3033L140.58 22.4346H140.739H143.13L140.42 25.9408L143.13 29.6065H142.97H140.42L138.508 26.7377V29.6065H138.348H136.277ZM146.955 29.9252C145.68 29.9252 144.723 29.6065 144.086 28.8096C143.448 28.0127 143.13 27.2158 143.13 26.1002C143.13 25.144 143.448 24.1877 144.086 23.3908C144.723 22.594 145.68 22.2752 146.955 22.2752H147.114C148.389 22.2752 149.345 22.594 149.983 23.3908C150.62 24.1877 150.939 24.9846 150.939 26.1002C150.939 27.0565 150.62 28.0127 149.983 28.8096C149.345 29.4471 148.389 29.7659 146.955 29.9252ZM146.955 28.1721H147.114H147.274C147.592 28.0128 147.911 27.8533 148.23 27.5346C148.548 27.2158 148.708 26.7377 148.708 26.1002C148.708 25.4627 148.548 24.9846 148.23 24.6658C147.911 24.3471 147.592 24.1877 147.274 24.0283H147.114H146.955H146.795C146.636 24.0283 146.636 24.0283 146.636 24.0283C146.317 24.1877 145.998 24.3471 145.839 24.6658C145.52 24.9846 145.52 25.4627 145.52 26.1002C145.52 26.7377 145.68 27.2158 145.839 27.5346C146.158 27.8533 146.317 28.0128 146.636 28.1721H146.795H146.955ZM152.055 22.4346H155.561C156.199 22.4346 156.677 22.5939 156.995 22.7533C157.314 22.9127 157.474 23.2314 157.633 23.5502C157.633 23.7096 157.633 23.869 157.792 23.869C157.792 24.0283 157.792 24.0283 157.792 24.1877C157.792 24.5065 157.633 24.8252 157.474 25.1439C157.314 25.4627 156.995 25.6221 156.677 25.6221C156.836 25.6221 156.836 25.6221 156.995 25.7815C157.155 25.7815 157.155 25.9408 157.314 25.9408C157.474 26.1002 157.792 26.2596 157.952 26.5784C158.111 26.8971 158.27 27.2158 158.27 27.5346V27.694C158.27 27.694 158.27 27.694 158.27 27.8534C158.27 28.3315 157.952 28.6502 157.633 29.1283C157.314 29.4471 156.677 29.6065 155.88 29.6065H155.72H152.055V22.4346ZM153.967 28.1721H154.764H154.924C155.083 28.1721 155.083 28.1721 155.242 28.1721C155.402 28.1721 155.561 28.0127 155.72 28.0127C155.88 27.8534 155.88 27.694 155.88 27.5346C155.88 27.3752 155.88 27.2159 155.72 27.0565C155.561 26.8971 155.402 26.8971 155.242 26.8971C155.083 26.8971 155.083 26.8971 154.924 26.8971H154.764H153.967V28.1721ZM153.967 25.3033H154.764C155.083 25.3033 155.242 25.3033 155.402 25.1439C155.561 24.9846 155.561 24.9846 155.72 24.8252C155.72 24.8252 155.72 24.8252 155.72 24.6658C155.72 24.6658 155.72 24.6658 155.72 24.5064C155.72 24.3471 155.72 24.1877 155.561 24.0283C155.402 23.869 155.242 23.869 154.764 23.869H153.967V25.3033ZM60.3057 41.2409L61.4213 34.069H61.5807H63.6525L64.9276 38.2128L66.2026 34.069H66.3619H68.4338L69.5495 41.2409H69.3901H67.4776L66.9995 37.4159L65.8838 41.2409H65.7245H64.4494L63.3338 37.4159L62.8556 41.2409H62.6963H60.3057ZM69.0714 41.2409L71.6213 34.069H71.7808H74.1714L76.7214 41.2409H76.5621H74.4902L74.1714 39.966H71.7808L71.462 41.2409H71.3027H69.0714ZM72.8964 35.8222L72.0995 38.3722H73.6933L72.8964 35.8222ZM77.3589 41.2409V34.069H77.5183H79.5901V36.9378L81.6621 34.069H81.8214H84.2121L81.5027 37.5753L84.2121 41.2409H84.0528H81.5027L79.5901 38.3722V41.2409H79.4308H77.3589ZM85.6465 41.2409L86.6027 39.3285L83.8933 34.2284H84.0528H86.4434L87.7184 37.0972L88.834 34.2284H88.9934H91.2247L88.0372 41.4003H87.8777H85.6465V41.2409ZM92.4997 34.069H97.9184V41.2409H97.7591H95.6872V35.8222H94.4122V38.6909C94.4122 38.8503 94.4122 39.0097 94.4122 39.1691C94.4122 39.3285 94.4122 39.4878 94.4122 39.6472C94.2528 40.1253 94.0934 40.4441 93.7747 40.7628C93.4559 41.0816 92.8184 41.2409 91.8621 41.2409H91.7028C91.5434 41.2409 91.5434 41.2409 91.384 41.2409C91.2246 41.2409 91.2246 41.2409 91.0652 41.2409H90.9059H90.7465V39.4878H90.9059H91.0652H91.2247C91.7028 39.4878 91.8622 39.3284 92.0216 39.0097C92.1809 38.6909 92.1809 38.3722 92.1809 37.894L92.4997 34.069ZM98.5559 41.2409L101.106 34.069H101.265H103.656L106.206 41.2409H106.047H103.975L103.656 39.966H101.265L100.947 41.2409H100.787H98.5559ZM102.381 35.8222L101.584 38.3722H103.178L102.381 35.8222ZM107.8 41.2409V35.8222H106.206V34.069H106.365H111.465V35.8222H109.872V41.2409H109.712H107.8ZM113.219 41.2409L114.175 39.3285L111.465 34.2284H111.625H114.015L115.29 37.0972L116.406 34.2284H116.565H118.797L115.609 41.4003H115.45H113.219V41.2409ZM119.275 41.2409V34.069H119.434H122.462C123.259 34.069 123.737 34.2284 124.215 34.5472C124.534 34.8659 124.853 35.1847 125.012 35.6628C125.012 35.8222 125.172 35.9816 125.172 36.1409C125.172 36.3003 125.172 36.4597 125.172 36.4597C125.172 36.619 125.172 36.7784 125.172 36.7784C125.172 36.9378 125.172 37.0972 125.012 37.2565C124.853 37.5753 124.694 38.0534 124.215 38.3722C123.897 38.6909 123.259 38.8503 122.462 38.8503H121.506V41.2409H121.347H119.275ZM121.347 35.6628V37.2565H121.825C122.144 37.2565 122.303 37.2565 122.462 37.0972C122.622 36.9378 122.622 36.9378 122.781 36.7784V36.619V36.4597V36.3003V36.1409C122.781 35.9816 122.622 35.8222 122.462 35.8222C122.303 35.6628 122.144 35.6628 121.825 35.6628H121.347ZM125.809 41.2409V34.069H125.969H128.041V36.7784H129.156C129.316 36.7784 129.475 36.7784 129.794 36.7784C129.953 36.7784 130.272 36.7784 130.591 36.9378C130.909 37.0972 131.387 37.2566 131.706 37.5753C132.025 37.8941 132.184 38.3722 132.184 39.0097C132.184 39.6472 132.025 40.1253 131.706 40.4441C131.387 40.7628 131.069 40.9222 130.75 41.0816C130.431 41.0816 130.272 41.2409 129.953 41.2409C129.794 41.2409 129.475 41.2409 129.316 41.2409H128.837H125.809ZM128.041 39.8066H128.837C129.156 39.8066 129.316 39.8066 129.634 39.6472C129.794 39.4878 129.953 39.3284 129.953 39.0097C129.953 38.6909 129.794 38.5316 129.634 38.3722C129.475 38.2128 129.156 38.2128 128.837 38.2128H128.041V39.8066ZM132.184 41.2409V34.069H132.344H134.416V41.2409H134.256H132.184Z" fill="#4EAD70"/>
<path fill-rule="evenodd" clip-rule="evenodd" d="M13.3913 36.6568C13.0725 32.8318 14.3476 29.0068 15.9413 25.5005L1.75684 26.9349C3.82873 30.1224 6.37875 33.6287 9.88503 35.3818C11.0007 36.0193 12.1163 36.4974 13.3913 36.6568Z" fill="#46AC6E"/>
<path fill-rule="evenodd" clip-rule="evenodd" d="M23.7467 50.9999C11.3153 50.9999 0.637112 44.3062 0.318359 27.2529C8.92467 41.4374 17.8497 38.7279 25.181 35.5404L23.7467 50.9999Z" fill="url(#paint0_linear)"/>
<path fill-rule="evenodd" clip-rule="evenodd" d="M14.1865 13.3869C18.0116 13.0681 21.8366 14.3431 25.3429 15.9369L23.9085 1.75244C20.721 3.82433 17.2147 6.37431 15.4615 9.88059C14.824 10.9962 14.3459 12.1119 14.1865 13.3869Z" fill="#46AC6E"/>
<path fill-rule="evenodd" clip-rule="evenodd" d="M1.02408e-06 23.7477C4.80693e-07 11.3163 6.69379 0.638088 23.747 0.319335C9.56256 8.92565 12.272 17.8507 15.4595 25.182L1.02408e-06 23.7477Z" fill="url(#paint1_linear)"/>
<path fill-rule="evenodd" clip-rule="evenodd" d="M37.4553 14.1831C37.7741 18.0081 36.499 21.8332 34.9053 25.3394L49.0897 23.905C47.0179 20.7175 44.4678 17.2112 40.9615 15.4581C40.0053 14.8206 38.7303 14.5019 37.4553 14.1831Z" fill="#46AC6E"/>
<path fill-rule="evenodd" clip-rule="evenodd" d="M27.0955 -6.26996e-08C39.5269 -6.06091e-07 50.205 6.69384 50.5238 23.7471C41.9175 9.56261 32.9924 12.272 25.6611 15.4595L27.0955 -6.26996e-08Z" fill="url(#paint2_linear)"/>
<path fill-rule="evenodd" clip-rule="evenodd" d="M36.6563 37.6131C32.8313 37.9318 29.0063 36.4974 25.5 35.063L26.9344 49.2475C30.1219 47.1756 33.6282 44.6255 35.3813 41.1193C36.0188 40.0036 36.497 38.7287 36.6563 37.6131Z" fill="#46AC6E"/>
<path fill-rule="evenodd" clip-rule="evenodd" d="M50.8398 27.093C50.8398 39.5244 44.146 50.2026 27.0928 50.5213C41.2773 41.915 38.5679 32.99 35.3803 25.6587L50.8398 27.093Z" fill="url(#paint3_linear)"/>
<defs>
<linearGradient id="paint0_linear" x1="0.31836" y1="39.1264" x2="25.181" y2="39.1264" gradientUnits="userSpaceOnUse">
<stop stop-color="#3AA461" stop-opacity="0.29"/>
<stop offset="1" stop-color="#38A35D"/>
</linearGradient>
<linearGradient id="paint1_linear" x1="5.4339e-07" y1="12.7507" x2="23.747" y2="12.7507" gradientUnits="userSpaceOnUse">
<stop stop-color="#38A35D"/>
<stop offset="1" stop-color="#3AA461" stop-opacity="0.29"/>
</linearGradient>
<linearGradient id="paint2_linear" x1="25.6611" y1="11.8735" x2="50.5238" y2="11.8735" gradientUnits="userSpaceOnUse">
<stop stop-color="#38A35D"/>
<stop offset="1" stop-color="#3AA461" stop-opacity="0.29"/>
</linearGradient>
<linearGradient id="paint3_linear" x1="27.0928" y1="38.09" x2="50.8398" y2="38.09" gradientUnits="userSpaceOnUse">
<stop stop-color="#3AA461" stop-opacity="0.29"/>
<stop offset="1" stop-color="#38A35D"/>
</linearGradient>
</defs>
</svg>
