<svg width="261" height="71" viewBox="0 0 261 71" fill="none" xmlns="http://www.w3.org/2000/svg">
<path d="M86.925 18.9999V4.64836H90.8212V15.8605H96.6234V18.9999H86.925Z" fill="#39AD46"/>
<path d="M98.1984 18.9999V4.64836H108.542V7.78776H102.095V10.2544H108.009V13.3938H102.095V15.8605H108.514V18.9999H98.1984Z" fill="#39AD46"/>
<path d="M114.202 18.9999H109.997L114.735 4.64836H120.06L124.797 18.9999H120.593L117.453 8.60063H117.341L114.202 18.9999ZM113.417 13.3378H121.322V16.2529H113.417V13.3378Z" fill="#39AD46"/>
<path d="M134.825 9.38548C134.765 9.13788 134.669 8.92065 134.538 8.73378C134.407 8.54224 134.244 8.38106 134.047 8.25026C133.856 8.11478 133.632 8.01433 133.375 7.94893C133.122 7.87885 132.844 7.84382 132.541 7.84382C131.887 7.84382 131.328 8.00032 130.866 8.31332C130.408 8.62633 130.058 9.07715 129.815 9.66579C129.577 10.2544 129.457 10.9645 129.457 11.7961C129.457 12.637 129.572 13.3564 129.801 13.9544C130.03 14.5524 130.371 15.0102 130.824 15.3279C131.277 15.6456 131.84 15.8044 132.513 15.8044C133.106 15.8044 133.599 15.718 133.991 15.5451C134.388 15.3723 134.685 15.127 134.881 14.8093C135.078 14.4917 135.176 14.1179 135.176 13.6881L135.848 13.7582H132.569V10.9832H138.932V12.9734C138.932 14.2814 138.654 15.4003 138.098 16.33C137.547 17.255 136.785 17.9651 135.813 18.4603C134.846 18.9508 133.737 19.1961 132.485 19.1961C131.088 19.1961 129.862 18.8994 128.806 18.3061C127.75 17.7128 126.925 16.8672 126.332 15.7694C125.743 14.6715 125.449 13.3658 125.449 11.8521C125.449 10.6655 125.629 9.6144 125.989 8.69874C126.353 7.78308 126.858 7.00991 127.502 6.37923C128.147 5.74388 128.892 5.26503 129.738 4.94268C130.583 4.61566 131.49 4.45215 132.457 4.45215C133.307 4.45215 134.096 4.57361 134.825 4.81654C135.559 5.0548 136.206 5.39584 136.766 5.83965C137.332 6.27879 137.787 6.79969 138.133 7.40234C138.479 8.00499 138.689 8.66604 138.764 9.38548H134.825Z" fill="#39AD46"/>
<path d="M149.242 4.64836H153.138V13.8423C153.138 14.9355 152.876 15.8815 152.353 16.6804C151.834 17.4746 151.11 18.0889 150.181 18.5234C149.251 18.9532 148.172 19.1681 146.943 19.1681C145.705 19.1681 144.621 18.9532 143.692 18.5234C142.762 18.0889 142.038 17.4746 141.519 16.6804C141.005 15.8815 140.748 14.9355 140.748 13.8423V4.64836H144.645V13.5059C144.645 13.9498 144.743 14.3468 144.939 14.6972C145.135 15.0429 145.406 15.3139 145.752 15.5101C146.102 15.7063 146.499 15.8044 146.943 15.8044C147.392 15.8044 147.789 15.7063 148.134 15.5101C148.48 15.3139 148.751 15.0429 148.947 14.6972C149.143 14.3468 149.242 13.9498 149.242 13.5059V4.64836Z" fill="#39AD46"/>
<path d="M154.99 18.9999V4.64836H165.333V7.78776H158.886V10.2544H164.8V13.3938H158.886V15.8605H165.305V18.9999H154.99Z" fill="#39AD46"/>
<path d="M100.828 35.8241C100.828 37.4218 100.517 38.7696 99.896 39.8675C99.2746 40.9607 98.4361 41.7899 97.3803 42.3552C96.3245 42.9158 95.1472 43.1961 93.8484 43.1961C92.5404 43.1961 91.3584 42.9135 90.3026 42.3482C89.2515 41.7782 88.4152 40.9467 87.7939 39.8535C87.1772 38.7556 86.8689 37.4125 86.8689 35.8241C86.8689 34.2264 87.1772 32.8809 87.7939 31.7878C88.4152 30.6899 89.2515 29.8607 90.3026 29.3001C91.3584 28.7348 92.5404 28.4521 93.8484 28.4521C95.1472 28.4521 96.3245 28.7348 97.3803 29.3001C98.4361 29.8607 99.2746 30.6899 99.896 31.7878C100.517 32.8809 100.828 34.2264 100.828 35.8241ZM96.8197 35.8241C96.8197 34.9645 96.7052 34.2404 96.4763 33.6518C96.252 33.0585 95.918 32.61 95.4742 32.3063C95.0351 31.998 94.4931 31.8438 93.8484 31.8438C93.2037 31.8438 92.6595 31.998 92.2157 32.3063C91.7765 32.61 91.4425 33.0585 91.2136 33.6518C90.9894 34.2404 90.8772 34.9645 90.8772 35.8241C90.8772 36.6837 90.9894 37.4102 91.2136 38.0035C91.4425 38.5921 91.7765 39.0406 92.2157 39.3489C92.6595 39.6526 93.2037 39.8044 93.8484 39.8044C94.4931 39.8044 95.0351 39.6526 95.4742 39.3489C95.918 39.0406 96.252 38.5921 96.4763 38.0035C96.7052 37.4102 96.8197 36.6837 96.8197 35.8241Z" fill="#39AD46"/>
<path d="M102.631 42.9999V28.6484H112.722V31.7878H106.527V34.2544H112.105V37.3938H106.527V42.9999H102.631Z" fill="#39AD46"/>
<path d="M121.73 42.9999L117.497 28.6484H121.842L123.804 37.4779H123.916L126.243 28.6484H129.662L131.989 37.5059H132.101L134.063 28.6484H138.408L134.175 42.9999H130.447L128.009 34.9832H127.897L125.458 42.9999H121.73Z" fill="#39AD46"/>
<path d="M141.721 42.9999H137.516L142.253 28.6484H147.579L152.316 42.9999H148.112L144.972 32.6006H144.86L141.721 42.9999ZM140.936 37.3378H148.84V40.2529H140.936V37.3378Z" fill="#39AD46"/>
<path d="M160.876 33.1332C160.839 32.666 160.663 32.3016 160.35 32.04C160.042 31.7784 159.572 31.6476 158.942 31.6476C158.54 31.6476 158.211 31.6967 157.954 31.7948C157.701 31.8882 157.515 32.0167 157.393 32.1802C157.272 32.3437 157.209 32.5306 157.204 32.7408C157.195 32.9136 157.225 33.0701 157.295 33.2103C157.37 33.3458 157.487 33.4696 157.645 33.5817C157.804 33.6891 158.007 33.7873 158.255 33.876C158.503 33.9648 158.797 34.0442 159.138 34.1143L160.315 34.3665C161.109 34.5347 161.789 34.7566 162.354 35.0323C162.92 35.3079 163.382 35.6326 163.742 36.0063C164.102 36.3754 164.366 36.7912 164.534 37.2537C164.707 37.7162 164.795 38.2207 164.8 38.7673C164.795 39.711 164.56 40.5099 164.092 41.1639C163.625 41.8179 162.957 42.3155 162.088 42.6565C161.224 42.9975 160.184 43.1681 158.97 43.1681C157.722 43.1681 156.634 42.9835 155.704 42.6145C154.779 42.2454 154.06 41.6778 153.546 40.9116C153.037 40.1408 152.78 39.1551 152.775 37.9544H156.475C156.499 38.3936 156.608 38.7626 156.805 39.0616C157.001 39.3606 157.276 39.5872 157.631 39.7414C157.991 39.8955 158.419 39.9726 158.914 39.9726C159.33 39.9726 159.678 39.9212 159.958 39.8184C160.238 39.7157 160.451 39.5732 160.596 39.391C160.74 39.2088 160.815 39.0009 160.82 38.7673C160.815 38.5477 160.743 38.3562 160.603 38.1927C160.467 38.0245 160.243 37.875 159.93 37.7442C159.617 37.6087 159.194 37.4826 158.662 37.3658L157.232 37.0575C155.961 36.7818 154.959 36.3217 154.226 35.677C153.497 35.0276 153.135 34.1423 153.14 33.0211C153.135 32.1101 153.378 31.3136 153.868 30.6315C154.364 29.9448 155.048 29.4099 155.922 29.0268C156.8 28.6437 157.807 28.4521 158.942 28.4521C160.1 28.4521 161.102 28.646 161.948 29.0338C162.794 29.4215 163.445 29.9681 163.903 30.6735C164.366 31.3743 164.599 32.1942 164.604 33.1332H160.876Z" fill="#39AD46"/>
<path d="M165.89 31.7878V28.6484H178.363V31.7878H174.047V42.9999H170.206V31.7878H165.89Z" fill="#39AD46"/>
<path d="M179.83 42.9999V28.6484H190.173V31.7878H183.726V34.2544H189.64V37.3938H183.726V39.8605H190.145V42.9999H179.83Z" fill="#39AD46"/>
<path d="M196.036 42.9999V28.6484H202.231C203.296 28.6484 204.228 28.8586 205.027 29.279C205.826 29.6995 206.447 30.2905 206.891 31.052C207.335 31.8134 207.557 32.7034 207.557 33.7218C207.557 34.7496 207.328 35.6396 206.87 36.3917C206.417 37.1439 205.779 37.7232 204.957 38.1296C204.14 38.5361 203.184 38.7393 202.091 38.7393H198.391V35.712H201.306C201.764 35.712 202.154 35.6326 202.476 35.4737C202.803 35.3102 203.053 35.079 203.226 34.78C203.404 34.481 203.492 34.1283 203.492 33.7218C203.492 33.3107 203.404 32.9604 203.226 32.6707C203.053 32.3764 202.803 32.1521 202.476 31.998C202.154 31.8391 201.764 31.7597 201.306 31.7597H199.933V42.9999H196.036Z" fill="#39AD46"/>
<path d="M210.922 42.9999H206.718L211.455 28.6484H216.781L221.518 42.9999H217.313L214.174 32.6006H214.062L210.922 42.9999ZM210.137 37.3378H218.042V40.2529H210.137V37.3378Z" fill="#39AD46"/>
<path d="M222.9 42.9999V28.6484H229.095C230.16 28.6484 231.092 28.8586 231.891 29.279C232.69 29.6995 233.311 30.2905 233.755 31.052C234.199 31.8134 234.42 32.7034 234.42 33.7218C234.42 34.7496 234.191 35.6396 233.734 36.3917C233.281 37.1439 232.643 37.7232 231.821 38.1296C231.003 38.5361 230.048 38.7393 228.955 38.7393H225.255V35.712H228.17C228.627 35.712 229.018 35.6326 229.34 35.4737C229.667 35.3102 229.917 35.079 230.09 34.78C230.267 34.481 230.356 34.1283 230.356 33.7218C230.356 33.3107 230.267 32.9604 230.09 32.6707C229.917 32.3764 229.667 32.1521 229.34 31.998C229.018 31.8391 228.627 31.7597 228.17 31.7597H226.796V42.9999H222.9Z" fill="#39AD46"/>
<path d="M235.85 42.9999V28.6484H246.193V31.7878H239.746V34.2544H245.661V37.3938H239.746V39.8605H246.165V42.9999H235.85Z" fill="#39AD46"/>
<path d="M248.125 42.9999V28.6484H254.32C255.385 28.6484 256.317 28.8422 257.116 29.23C257.915 29.6177 258.536 30.176 258.98 30.9048C259.424 31.6336 259.646 32.5072 259.646 33.5256C259.646 34.5534 259.417 35.42 258.959 36.1254C258.506 36.8309 257.868 37.3635 257.046 37.7232C256.229 38.0829 255.273 38.2628 254.18 38.2628H250.48V35.2355H253.395C253.853 35.2355 254.243 35.1794 254.565 35.0673C254.892 34.9505 255.142 34.766 255.315 34.5137C255.493 34.2614 255.582 33.9321 255.582 33.5256C255.582 33.1145 255.493 32.7805 255.315 32.5236C255.142 32.2619 254.892 32.0704 254.565 31.9489C254.243 31.8228 253.853 31.7597 253.395 31.7597H252.022V42.9999H248.125ZM256.535 36.4128L260.122 42.9999H255.89L252.386 36.4128H256.535Z" fill="#39AD46"/>
<path d="M86.925 66.9999V52.6484H93.1197C94.1848 52.6484 95.1168 52.8586 95.9157 53.279C96.7145 53.6995 97.3359 54.2905 97.7797 55.052C98.2235 55.8134 98.4454 56.7034 98.4454 57.7218C98.4454 58.7496 98.2165 59.6396 97.7587 60.3917C97.3055 61.1439 96.6678 61.7232 95.8456 62.1296C95.0281 62.5361 94.0727 62.7393 92.9795 62.7393H89.2795V59.712H92.1947C92.6525 59.712 93.0426 59.6326 93.3649 59.4737C93.6919 59.3102 93.9419 59.079 94.1147 58.78C94.2923 58.481 94.381 58.1283 94.381 57.7218C94.381 57.3107 94.2923 56.9604 94.1147 56.6707C93.9419 56.3764 93.6919 56.1521 93.3649 55.998C93.0426 55.8391 92.6525 55.7597 92.1947 55.7597H90.8212V66.9999H86.925Z" fill="#39AD46"/>
<path d="M99.875 66.9999V52.6484H106.07C107.135 52.6484 108.067 52.8422 108.866 53.23C109.665 53.6177 110.286 54.176 110.73 54.9048C111.174 55.6336 111.395 56.5072 111.395 57.5256C111.395 58.5534 111.166 59.42 110.709 60.1254C110.256 60.8309 109.618 61.3635 108.796 61.7232C107.978 62.0829 107.023 62.2628 105.93 62.2628H102.23V59.2355H105.145C105.602 59.2355 105.993 59.1794 106.315 59.0673C106.642 58.9505 106.892 58.766 107.065 58.5137C107.242 58.2614 107.331 57.9321 107.331 57.5256C107.331 57.1145 107.242 56.7805 107.065 56.5236C106.892 56.2619 106.642 56.0704 106.315 55.9489C105.993 55.8228 105.602 55.7597 105.145 55.7597H103.771V66.9999H99.875ZM108.284 60.4128L111.872 66.9999H107.639L104.136 60.4128H108.284Z" fill="#39AD46"/>
<path d="M126.959 59.8241C126.959 61.4218 126.649 62.7696 126.027 63.8675C125.406 64.9607 124.567 65.7899 123.512 66.3552C122.456 66.9158 121.278 67.1961 119.98 67.1961C118.672 67.1961 117.49 66.9135 116.434 66.3482C115.383 65.7782 114.546 64.9467 113.925 63.8535C113.308 62.7556 113 61.4125 113 59.8241C113 58.2264 113.308 56.8809 113.925 55.7878C114.546 54.6899 115.383 53.8607 116.434 53.3001C117.49 52.7348 118.672 52.4521 119.98 52.4521C121.278 52.4521 122.456 52.7348 123.512 53.3001C124.567 53.8607 125.406 54.6899 126.027 55.7878C126.649 56.8809 126.959 58.2264 126.959 59.8241ZM122.951 59.8241C122.951 58.9645 122.836 58.2404 122.608 57.6518C122.383 57.0585 122.049 56.61 121.605 56.3063C121.166 55.998 120.624 55.8438 119.98 55.8438C119.335 55.8438 118.791 55.998 118.347 56.3063C117.908 56.61 117.574 57.0585 117.345 57.6518C117.121 58.2404 117.008 58.9645 117.008 59.8241C117.008 60.6837 117.121 61.4102 117.345 62.0035C117.574 62.5921 117.908 63.0406 118.347 63.3489C118.791 63.6526 119.335 63.8044 119.98 63.8044C120.624 63.8044 121.166 63.6526 121.605 63.3489C122.049 63.0406 122.383 62.5921 122.608 62.0035C122.836 61.4102 122.951 60.6837 122.951 59.8241Z" fill="#39AD46"/>
<path d="M142.16 58.0302H138.208C138.18 57.7032 138.105 57.4065 137.984 57.1402C137.867 56.8739 137.704 56.645 137.493 56.4535C137.288 56.2573 137.038 56.1078 136.744 56.005C136.449 55.8975 136.115 55.8438 135.741 55.8438C135.087 55.8438 134.534 56.0027 134.081 56.3203C133.632 56.638 133.291 57.0935 133.058 57.6868C132.829 58.2801 132.714 58.9926 132.714 59.8241C132.714 60.7024 132.831 61.4382 133.065 62.0315C133.303 62.6201 133.646 63.064 134.095 63.3629C134.543 63.6573 135.083 63.8044 135.713 63.8044C136.073 63.8044 136.396 63.76 136.681 63.6713C136.965 63.5778 137.213 63.4447 137.423 63.2718C137.634 63.099 137.804 62.8911 137.935 62.6482C138.07 62.4006 138.161 62.1226 138.208 61.8143L142.16 61.8423C142.114 62.4496 141.943 63.0686 141.649 63.6993C141.355 64.3253 140.936 64.9046 140.395 65.4372C139.857 65.9651 139.192 66.3902 138.397 66.7126C137.603 67.0349 136.68 67.1961 135.629 67.1961C134.312 67.1961 133.13 66.9135 132.084 66.3482C131.042 65.7829 130.217 64.9513 129.61 63.8535C129.007 62.7556 128.706 61.4125 128.706 59.8241C128.706 58.2264 129.014 56.8809 129.631 55.7878C130.248 54.6899 131.079 53.8607 132.126 53.3001C133.172 52.7348 134.34 52.4521 135.629 52.4521C136.536 52.4521 137.37 52.576 138.131 52.8236C138.893 53.0712 139.561 53.4332 140.135 53.9097C140.71 54.3816 141.172 54.9632 141.523 55.6546C141.873 56.346 142.086 57.1379 142.16 58.0302Z" fill="#39AD46"/>
<path d="M143.928 66.9999V52.6484H154.271V55.7878H147.824V58.2544H153.739V61.3938H147.824V63.8605H154.243V66.9999H143.928Z" fill="#39AD46"/>
<path d="M163.94 57.1332C163.903 56.666 163.727 56.3016 163.414 56.04C163.106 55.7784 162.637 55.6476 162.006 55.6476C161.604 55.6476 161.275 55.6967 161.018 55.7948C160.766 55.8882 160.579 56.0167 160.457 56.1802C160.336 56.3437 160.273 56.5306 160.268 56.7408C160.259 56.9136 160.289 57.0701 160.359 57.2103C160.434 57.3458 160.551 57.4696 160.709 57.5817C160.868 57.6891 161.072 57.7873 161.319 57.876C161.567 57.9648 161.861 58.0442 162.202 58.1143L163.379 58.3665C164.174 58.5347 164.853 58.7566 165.419 59.0323C165.984 59.3079 166.446 59.6326 166.806 60.0063C167.166 60.3754 167.43 60.7912 167.598 61.2537C167.771 61.7162 167.86 62.2207 167.864 62.7673C167.86 63.711 167.624 64.5099 167.156 65.1639C166.689 65.8179 166.021 66.3155 165.152 66.6565C164.288 66.9975 163.249 67.1681 162.034 67.1681C160.787 67.1681 159.698 66.9835 158.768 66.6145C157.843 66.2454 157.124 65.6778 156.61 64.9116C156.101 64.1408 155.844 63.1551 155.839 61.9544H159.539C159.563 62.3936 159.672 62.7626 159.869 63.0616C160.065 63.3606 160.34 63.5872 160.695 63.7414C161.055 63.8955 161.483 63.9726 161.978 63.9726C162.394 63.9726 162.742 63.9212 163.022 63.8184C163.302 63.7157 163.515 63.5732 163.66 63.391C163.804 63.2088 163.879 63.0009 163.884 62.7673C163.879 62.5477 163.807 62.3562 163.667 62.1927C163.531 62.0245 163.307 61.875 162.994 61.7442C162.681 61.6087 162.258 61.4826 161.726 61.3658L160.296 61.0575C159.025 60.7818 158.023 60.3217 157.29 59.677C156.561 59.0276 156.199 58.1423 156.204 57.0211C156.199 56.1101 156.442 55.3136 156.932 54.6315C157.428 53.9448 158.112 53.4099 158.986 53.0268C159.864 52.6437 160.871 52.4521 162.006 52.4521C163.164 52.4521 164.167 52.646 165.012 53.0338C165.858 53.4215 166.509 53.9681 166.967 54.6736C167.43 55.3743 167.663 56.1942 167.668 57.1332H163.94Z" fill="#39AD46"/>
<path d="M177.083 57.1332C177.045 56.666 176.87 56.3016 176.557 56.04C176.249 55.7784 175.779 55.6476 175.149 55.6476C174.747 55.6476 174.417 55.6967 174.161 55.7948C173.908 55.8882 173.721 56.0167 173.6 56.1802C173.478 56.3437 173.415 56.5306 173.411 56.7408C173.401 56.9136 173.432 57.0701 173.502 57.2103C173.577 57.3458 173.693 57.4696 173.852 57.5817C174.011 57.6891 174.214 57.7873 174.462 57.876C174.709 57.9648 175.004 58.0442 175.345 58.1143L176.522 58.3665C177.316 58.5347 177.996 58.7566 178.561 59.0323C179.127 59.3079 179.589 59.6326 179.949 60.0063C180.309 60.3754 180.572 60.7912 180.741 61.2537C180.913 61.7162 181.002 62.2207 181.007 62.7673C181.002 63.711 180.766 64.5099 180.299 65.1639C179.832 65.8179 179.164 66.3155 178.295 66.6565C177.431 66.9975 176.391 67.1681 175.177 67.1681C173.929 67.1681 172.841 66.9835 171.911 66.6145C170.986 66.2454 170.267 65.6778 169.753 64.9116C169.244 64.1408 168.987 63.1551 168.982 61.9544H172.682C172.705 62.3936 172.815 62.7626 173.011 63.0616C173.207 63.3606 173.483 63.5872 173.838 63.7414C174.198 63.8955 174.625 63.9726 175.121 63.9726C175.536 63.9726 175.884 63.9212 176.165 63.8184C176.445 63.7157 176.658 63.5732 176.802 63.391C176.947 63.2088 177.022 63.0009 177.027 62.7673C177.022 62.5477 176.95 62.3562 176.809 62.1927C176.674 62.0245 176.45 61.875 176.137 61.7442C175.824 61.6087 175.401 61.4826 174.868 61.3658L173.439 61.0575C172.168 60.7818 171.166 60.3217 170.432 59.677C169.704 59.0276 169.342 58.1423 169.346 57.0211C169.342 56.1101 169.585 55.3136 170.075 54.6315C170.57 53.9448 171.255 53.4099 172.128 53.0268C173.007 52.6437 174.013 52.4521 175.149 52.4521C176.307 52.4521 177.309 52.646 178.155 53.0338C179 53.4215 179.652 53.9681 180.11 54.6736C180.572 55.3743 180.806 56.1942 180.811 57.1332H177.083Z" fill="#39AD46"/>
<path d="M196.392 59.8241C196.392 61.4218 196.081 62.7696 195.46 63.8675C194.839 64.9607 194 65.7899 192.944 66.3552C191.889 66.9158 190.711 67.1961 189.413 67.1961C188.104 67.1961 186.922 66.9135 185.867 66.3482C184.816 65.7782 183.979 64.9467 183.358 63.8535C182.741 62.7556 182.433 61.4125 182.433 59.8241C182.433 58.2264 182.741 56.8809 183.358 55.7878C183.979 54.6899 184.816 53.8607 185.867 53.3001C186.922 52.7348 188.104 52.4521 189.413 52.4521C190.711 52.4521 191.889 52.7348 192.944 53.3001C194 53.8607 194.839 54.6899 195.46 55.7878C196.081 56.8809 196.392 58.2264 196.392 59.8241ZM192.384 59.8241C192.384 58.9645 192.269 58.2404 192.04 57.6518C191.816 57.0585 191.482 56.61 191.038 56.3063C190.599 55.998 190.057 55.8438 189.413 55.8438C188.768 55.8438 188.224 55.998 187.78 56.3063C187.341 56.61 187.007 57.0585 186.778 57.6518C186.553 58.2404 186.441 58.9645 186.441 59.8241C186.441 60.6837 186.553 61.4102 186.778 62.0035C187.007 62.5921 187.341 63.0406 187.78 63.3489C188.224 63.6526 188.768 63.8044 189.413 63.8044C190.057 63.8044 190.599 63.6526 191.038 63.3489C191.482 63.0406 191.816 62.5921 192.04 62.0035C192.269 61.4102 192.384 60.6837 192.384 59.8241Z" fill="#39AD46"/>
<path d="M198.195 66.9999V52.6484H204.389C205.455 52.6484 206.387 52.8422 207.185 53.23C207.984 53.6177 208.606 54.176 209.049 54.9048C209.493 55.6336 209.715 56.5072 209.715 57.5256C209.715 58.5534 209.486 59.42 209.028 60.1254C208.575 60.8309 207.938 61.3635 207.115 61.7232C206.298 62.0829 205.342 62.2628 204.249 62.2628H200.549V59.2355H203.464C203.922 59.2355 204.312 59.1794 204.635 59.0673C204.962 58.9505 205.212 58.766 205.385 58.5137C205.562 58.2614 205.651 57.9321 205.651 57.5256C205.651 57.1145 205.562 56.7805 205.385 56.5236C205.212 56.2619 204.962 56.0704 204.635 55.9489C204.312 55.8228 203.922 55.7597 203.464 55.7597H202.091V66.9999H198.195ZM206.604 60.4128L210.192 66.9999H205.959L202.455 60.4128H206.604Z" fill="#39AD46"/>
<path d="M219.112 57.1332C219.075 56.666 218.9 56.3016 218.587 56.04C218.278 55.7784 217.809 55.6476 217.178 55.6476C216.777 55.6476 216.447 55.6967 216.19 55.7948C215.938 55.8882 215.751 56.0167 215.63 56.1802C215.508 56.3437 215.445 56.5306 215.44 56.7408C215.431 56.9136 215.461 57.0701 215.531 57.2103C215.606 57.3458 215.723 57.4696 215.882 57.5817C216.041 57.6891 216.244 57.7873 216.492 57.876C216.739 57.9648 217.033 58.0442 217.374 58.1143L218.552 58.3665C219.346 58.5347 220.026 58.7566 220.591 59.0323C221.156 59.3079 221.619 59.6326 221.978 60.0063C222.338 60.3754 222.602 60.7912 222.77 61.2537C222.943 61.7162 223.032 62.2207 223.037 62.7673C223.032 63.711 222.796 64.5099 222.329 65.1639C221.862 65.8179 221.194 66.3155 220.325 66.6565C219.46 66.9975 218.421 67.1681 217.206 67.1681C215.959 67.1681 214.87 66.9835 213.941 66.6145C213.016 66.2454 212.296 65.6778 211.782 64.9116C211.273 64.1408 211.016 63.1551 211.012 61.9544H214.712C214.735 62.3936 214.845 62.7626 215.041 63.0616C215.237 63.3606 215.513 63.5872 215.868 63.7414C216.228 63.8955 216.655 63.9726 217.15 63.9726C217.566 63.9726 217.914 63.9212 218.194 63.8184C218.475 63.7157 218.687 63.5732 218.832 63.391C218.977 63.2088 219.052 63.0009 219.056 62.7673C219.052 62.5477 218.979 62.3562 218.839 62.1927C218.704 62.0245 218.479 61.875 218.166 61.7442C217.853 61.6087 217.431 61.4826 216.898 61.3658L215.468 61.0575C214.198 60.7818 213.196 60.3217 212.462 59.677C211.733 59.0276 211.371 58.1423 211.376 57.0211C211.371 56.1101 211.614 55.3136 212.105 54.6315C212.6 53.9448 213.284 53.4099 214.158 53.0268C215.036 52.6437 216.043 52.4521 217.178 52.4521C218.337 52.4521 219.339 52.646 220.185 53.0338C221.03 53.4215 221.682 53.9681 222.14 54.6736C222.602 55.3743 222.836 56.1942 222.84 57.1332H219.112Z" fill="#39AD46"/>
<path fill-rule="evenodd" clip-rule="evenodd" d="M18.6416 51.0318C18.1978 45.7068 19.9728 40.3818 22.1916 35.5005L2.44458 37.4974C5.32897 41.935 8.87901 46.8162 13.7603 49.2569C15.3134 50.1444 16.8666 50.81 18.6416 51.0318Z" fill="#39AD46"/>
<path fill-rule="evenodd" clip-rule="evenodd" d="M33.0597 70.9999C15.7533 70.9999 0.887602 61.6812 0.443848 37.9404C12.4252 57.6874 24.8502 53.9154 35.0566 49.4779L33.0597 70.9999Z" fill="#39AD46"/>
<path fill-rule="evenodd" clip-rule="evenodd" d="M19.7495 18.6369C25.0745 18.1931 30.3996 19.9681 35.2809 22.1869L33.284 2.43994C28.8465 5.32434 23.9652 8.8743 21.5245 13.7556C20.637 15.3087 19.9714 16.8619 19.7495 18.6369Z" fill="#39AD46"/>
<path fill-rule="evenodd" clip-rule="evenodd" d="M1.42569e-06 33.0602C6.692e-07 15.7538 9.3188 0.888089 33.0596 0.444334C13.3126 12.4257 17.0845 24.8507 21.522 35.057L1.42569e-06 33.0602Z" fill="#39AD46"/>
<path fill-rule="evenodd" clip-rule="evenodd" d="M52.1433 19.7451C52.5871 25.0702 50.812 30.3952 48.5933 35.2765L68.3403 33.2795C65.4559 28.842 61.9058 23.9607 57.0245 21.5201C55.6933 20.6326 53.9183 20.1889 52.1433 19.7451Z" fill="#39AD46"/>
<path fill-rule="evenodd" clip-rule="evenodd" d="M37.722 -8.72877e-08C55.0284 -8.43773e-07 69.8941 9.31887 70.3378 33.0597C58.3565 13.3126 45.9314 17.0845 35.7251 21.522L37.722 -8.72877e-08Z" fill="#39AD46"/>
<path fill-rule="evenodd" clip-rule="evenodd" d="M51.0309 52.3631C45.7058 52.8068 40.3808 50.8099 35.4995 48.813L37.4964 68.56C41.9339 65.6757 46.8152 62.1255 49.2558 57.2443C50.1434 55.6911 50.809 53.9162 51.0309 52.3631Z" fill="#39AD46"/>
<path fill-rule="evenodd" clip-rule="evenodd" d="M70.7771 37.7175C70.7771 55.0239 61.4583 69.8896 37.7175 70.3334C57.4645 58.352 53.6926 45.927 49.2551 35.7207L70.7771 37.7175Z" fill="#39AD46"/>
</svg>
