<svg width="290" height="71" viewBox="0 0 290 71" fill="none" xmlns="http://www.w3.org/2000/svg">
<path fill-rule="evenodd" clip-rule="evenodd" d="M89.1885 5H100.528V19.8429H100.194H95.8587V8.62829H93.1906V14.5654C93.1906 14.8953 93.1906 15.2252 93.1906 15.555C93.1906 15.8849 93.1906 16.2147 93.1906 16.5445C92.8571 17.534 92.5235 18.1938 91.8565 18.8534C91.1895 19.5131 89.8554 19.8429 87.8544 19.8429H87.5209C87.1874 19.8429 87.1874 19.8429 86.8539 19.8429C86.5204 19.8429 86.5203 19.8429 86.1868 19.8429H85.8534H85.52V16.2146H85.8534H86.1868H86.5204C87.521 16.2146 87.8545 15.8848 88.188 15.2251C88.5215 14.5655 88.5214 13.9057 88.5214 12.9162L89.1885 5ZM103.196 5H107.198V13.5759L112.868 5H113.201H117.203V19.8429H116.87H112.868V11.267L107.531 19.8429H107.198H102.862L103.196 5ZM119.871 19.8429V5H120.205H129.21V8.62829H124.207V19.8429H119.871ZM129.21 19.8429L134.546 5H134.879H139.882L145.218 19.8429H144.885H140.549L139.882 17.2042H134.879L134.212 19.8429H133.879H129.21ZM137.214 8.95815L135.546 14.2357H138.881L137.214 8.95815ZM86.5596 43.5917V28.7487H86.8932H100.234V43.5917H99.5665H95.2309V32.377H90.5617V43.5917H90.2283H86.5596ZM102.568 43.5917V28.7487H102.902H111.906V32.377H107.237V34.356H111.573V37.6544H107.237V39.9634H111.906V43.5917H111.573H102.568ZM113.907 43.5917V28.7487H114.241H120.578C122.245 28.7487 123.246 29.0785 124.246 29.7382C124.913 30.3979 125.58 31.0576 125.914 32.0472C125.914 32.377 126.247 32.7068 126.247 33.0366C126.247 33.3665 126.247 33.6964 126.247 33.6964V34.356C126.247 34.6858 126.247 35.0157 125.914 35.3456C125.58 36.0053 125.247 36.9947 124.246 37.6544C123.246 38.3141 122.245 38.644 120.578 38.644H118.577V43.5917H118.243H113.907ZM118.577 32.0472V35.3456H119.577C120.244 35.3456 120.578 35.3456 120.911 35.0157C121.245 34.6859 121.244 34.6858 121.578 34.356V34.0262V33.6964V33.3665V33.0366C121.578 32.7068 121.245 32.377 120.911 32.377C120.578 32.0472 120.244 32.0472 119.577 32.0472H118.577ZM127.915 43.5917V28.7487H128.248H137.253V32.377H132.584V34.356H136.92V37.6544H132.584V39.9634H137.253V43.5917H136.92H127.915ZM139.254 43.5917V28.7487H139.588H145.924C147.592 28.7487 148.592 29.0785 149.593 29.7382C150.26 30.3979 150.927 31.0576 151.26 32.0472C151.26 32.377 151.594 32.7068 151.594 33.0366C151.594 33.3665 151.594 33.6964 151.594 33.6964V34.356C151.594 34.6858 151.594 35.0157 151.26 35.3456C150.927 36.0053 150.593 36.9947 149.593 37.6544C148.592 38.3141 147.592 38.644 145.924 38.644H143.923V43.5917H143.59H139.254ZM143.923 32.0472V35.3456H144.924C145.591 35.3456 145.924 35.3456 146.258 35.0157C146.591 34.6859 146.591 34.6858 146.925 34.356V34.0262V33.6964V33.3665V33.0366C146.925 32.7068 146.591 32.377 146.258 32.377C145.924 32.0472 145.591 32.0472 144.924 32.0472H143.923ZM151.927 43.5917L157.263 28.7487H157.597H162.6L167.936 43.5917H167.602H162.933L162.266 40.9528H157.263L156.596 43.5917H156.263H151.927ZM159.932 32.7068L158.264 37.9843H161.599L159.932 32.7068ZM168.936 43.5917V28.7487H169.27H180.276V32.377H173.272V34.6859H175.606C175.94 34.6859 176.274 34.6859 176.941 34.6859C177.274 34.6859 177.941 34.6859 178.608 35.0157C179.275 35.3456 180.276 35.6754 180.943 36.3351C181.61 36.9948 181.943 37.9843 181.943 39.3036C181.943 40.623 181.61 41.6126 180.943 42.2723C180.276 42.932 179.609 43.2618 178.608 43.5917C177.941 43.9215 177.608 43.9215 176.941 43.9215C176.607 43.9215 175.94 43.9215 175.606 43.9215H175.273H168.936V43.5917ZM173.272 40.6231H174.939C175.606 40.6231 175.94 40.6231 176.607 40.2932C176.94 39.9634 177.274 39.6336 177.274 38.9739C177.274 38.3142 176.94 37.9843 176.607 37.6544C176.273 37.3246 175.606 37.3247 174.939 37.3247H173.272V40.6231ZM190.614 44.2513C187.946 44.2513 185.945 43.5917 184.611 41.9424C183.277 40.2932 182.61 38.644 182.61 36.3351C182.61 34.356 183.277 32.377 184.611 30.7278C185.945 29.0786 187.946 28.4189 190.614 28.4189H190.948C193.616 28.4189 195.617 29.0786 196.951 30.7278C198.285 32.377 198.952 34.0262 198.952 36.3351C198.952 38.3141 198.285 40.2932 196.951 41.9424C195.617 43.2618 193.616 43.9214 190.614 44.2513ZM190.948 40.6231H191.281H191.615C192.282 40.2932 192.949 39.9633 193.616 39.3036C194.283 38.6439 194.617 37.6544 194.617 36.3351C194.617 35.0157 194.283 34.0262 193.616 33.3665C192.949 32.7068 192.282 32.377 191.615 32.0472H191.281H190.948H190.614C190.281 32.0472 190.281 32.0472 190.281 32.0472C189.614 32.377 188.947 32.7068 188.613 33.3665C187.946 34.0262 187.946 35.0157 187.946 36.3351C187.946 37.6544 188.28 38.6439 188.613 39.3036C189.28 39.9633 189.614 40.2932 190.281 40.6231H190.614C190.614 40.6231 190.615 40.6231 190.948 40.6231ZM202.954 43.5917V32.377H199.619V28.7487H199.953H210.625V32.377H207.29V43.5917H206.956H202.954ZM219.963 43.5917V37.9843C219.63 37.9843 218.963 37.9843 218.629 37.9843C218.296 37.9843 217.962 37.9843 217.962 37.9843H217.629H217.295H216.962C214.627 37.9843 212.96 37.6545 212.626 36.6649C211.959 35.6754 211.625 34.6859 211.625 33.6964V33.3665V33.0366V28.7487H211.959H216.295V32.377C216.295 33.0367 216.295 33.3665 216.628 34.0262C216.962 34.3561 217.295 34.6859 218.629 34.6859H218.963C219.296 34.6859 219.63 34.6859 219.963 34.6859V29.0786H220.297H224.632V43.9215H224.299H219.963V43.5917ZM227.3 28.7487H231.303V37.3247L236.972 28.7487H237.306H241.308V43.5917H240.974H236.972V35.0157L231.636 43.5917H231.303H226.967L227.3 28.7487ZM243.976 43.5917V28.7487H244.309H248.645V34.6859L252.981 28.7487H253.314H258.317L252.647 36.0052L258.317 43.5917H257.983H252.647L248.645 37.6544V43.5917H248.311H243.976ZM266.321 44.2513C263.653 44.2513 261.652 43.5917 260.318 41.9424C258.984 40.2932 258.317 38.644 258.317 36.3351C258.317 34.356 258.984 32.377 260.318 30.7278C261.652 29.0786 263.653 28.4189 266.321 28.4189H266.654C269.322 28.4189 271.324 29.0786 272.658 30.7278C273.992 32.377 274.659 34.0262 274.659 36.3351C274.659 38.3141 273.992 40.2932 272.658 41.9424C271.324 43.2618 269.323 43.9214 266.321 44.2513ZM266.321 40.6231H266.654H266.988C267.655 40.2932 268.322 39.9633 268.989 39.3036C269.656 38.6439 269.989 37.6544 269.989 36.3351C269.989 35.0157 269.656 34.0262 268.989 33.3665C268.322 32.7068 267.655 32.377 266.988 32.0472H266.654H266.321H265.988C265.654 32.0472 265.654 32.0472 265.654 32.0472C264.987 32.377 264.32 32.7068 263.986 33.3665C263.319 34.0262 263.319 35.0157 263.319 36.3351C263.319 37.6544 263.653 38.6439 263.986 39.3036C264.653 39.9633 264.987 40.2932 265.654 40.6231H265.988H266.321ZM276.993 28.7487H284.331C285.665 28.7487 286.665 29.0785 287.332 29.4083C287.999 29.7382 288.333 30.3979 288.666 31.0576C288.666 31.3874 288.666 31.7173 288.999 31.7173C288.999 32.0471 288.999 32.0472 288.999 32.377C288.999 33.0367 288.666 33.6963 288.332 34.356C287.999 35.0157 287.332 35.3456 286.665 35.3456C286.998 35.3456 286.998 35.3456 287.332 35.6754C287.665 35.6754 287.666 36.0052 287.999 36.0052C288.333 36.335 289 36.665 289.333 37.3247C289.667 37.9843 290 38.6439 290 39.3036V39.6335C290 39.6335 290 39.6335 290 39.9634C290 40.9529 289.333 41.6125 288.666 42.6021C287.999 43.2617 286.665 43.5917 284.997 43.5917H284.664H276.993V28.7487ZM280.995 40.6231H282.663H282.996C283.33 40.6231 283.33 40.6231 283.663 40.6231C283.997 40.6231 284.33 40.2932 284.664 40.2932C284.997 39.9634 284.997 39.6335 284.997 39.3036C284.997 38.9738 284.997 38.644 284.664 38.3141C284.33 37.9843 283.997 37.9843 283.663 37.9843C283.33 37.9843 283.33 37.9843 282.996 37.9843H282.663H280.995V40.6231ZM280.995 34.6859H282.663C283.33 34.6859 283.663 34.6858 283.997 34.356C284.33 34.0261 284.33 34.0262 284.664 33.6964C284.664 33.6964 284.664 33.6963 284.664 33.3665C284.664 33.3665 284.664 33.3665 284.664 33.0366C284.664 32.7068 284.664 32.377 284.331 32.0472C283.997 31.7173 283.664 31.7173 282.663 31.7173H280.995V34.6859ZM85 67.6701L87.3346 52.8272H87.668H92.0036L94.6718 61.4031L97.3399 52.8272H97.6733H102.009L104.343 67.6701H104.01H100.008L99.0074 59.7539L96.6728 67.6701H96.3394H93.6712L91.3368 59.7539L90.3361 67.6701H90.0026H85ZM103.343 67.6701L108.679 52.8272H109.013H114.015L119.351 67.6701H119.018H114.682L114.015 65.0314H109.013L108.346 67.6701H108.012H103.343ZM111.347 56.4555L109.68 61.733H113.015L111.347 56.4555ZM120.685 67.6701V52.8272H121.019H125.354V58.7644L129.69 52.8272H130.024H135.026L129.357 60.0838L135.026 67.6701H134.693H129.357L125.354 61.733V67.6701H125.021H120.685ZM138.028 67.6701L140.029 63.7121L134.359 53.1571H134.693H139.696L142.364 59.0942L144.698 53.1571H145.032H149.701L143.031 68H142.697H138.028V67.6701ZM152.369 52.8272H163.708V67.6701H163.375H159.039V56.4555H156.371V62.3926C156.371 62.7225 156.371 63.0524 156.371 63.3822C156.371 63.7121 156.371 64.0419 156.371 64.3717C156.037 65.3612 155.704 66.021 155.037 66.6806C154.37 67.3403 153.036 67.6701 151.035 67.6701H150.701C150.368 67.6701 150.368 67.6701 150.034 67.6701C149.701 67.6701 149.701 67.6701 149.367 67.6701H149.034H148.7V64.0418H149.034H149.367H149.701C150.701 64.0418 151.035 63.712 151.368 63.0524C151.702 62.3927 151.702 61.7329 151.702 60.7434L152.369 52.8272ZM165.042 67.6701L170.378 52.8272H170.712H175.714L181.051 67.6701H180.717H176.382L175.714 65.0314H170.712L170.045 67.6701H169.711H165.042ZM173.046 56.4555L171.379 61.733H174.714L173.046 56.4555ZM184.386 67.6701V56.4555H181.051V52.8272H181.384H192.056V56.4555H188.721V67.6701H188.388H184.386ZM195.725 67.6701L197.726 63.7121L192.056 53.1571H192.39H197.393L200.061 59.0942L202.395 53.1571H202.729H207.398L200.728 68H200.394H195.725V67.6701ZM208.398 67.6701V52.8272H208.732H215.068C216.736 52.8272 217.736 53.1571 218.737 53.8168C219.404 54.4765 220.071 55.1361 220.405 56.1256C220.405 56.4555 220.738 56.7854 220.738 57.1152C220.738 57.4451 220.738 57.7749 220.738 57.7749C220.738 58.1047 220.738 58.4346 220.738 58.4346C220.738 58.7644 220.738 59.0942 220.405 59.4241C220.071 60.0838 219.738 61.0733 218.737 61.733C218.07 62.3927 216.736 62.7225 215.068 62.7225H213.068V67.6701H212.734H208.398ZM212.734 56.1256V59.4241H213.734C214.401 59.4241 214.735 59.424 215.068 59.0942C215.402 58.7644 215.402 58.7644 215.736 58.4346V58.1047V57.7749V57.445V57.1152C215.736 56.7854 215.402 56.4555 215.068 56.4555C214.735 56.1257 214.401 56.1256 213.734 56.1256H212.734ZM222.072 67.6701V52.8272H222.406H226.741V58.4346H229.076C229.409 58.4346 229.743 58.4346 230.41 58.4346C230.743 58.4346 231.41 58.4346 232.077 58.7644C232.744 59.0943 233.745 59.4241 234.412 60.0838C235.079 60.7435 235.412 61.733 235.412 63.0524C235.412 64.3717 235.079 65.3612 234.412 66.0209C233.745 66.6806 233.078 67.0104 232.411 67.3403C231.744 67.3403 231.41 67.6701 230.743 67.6701C230.41 67.6701 229.743 67.6701 229.409 67.6701H228.409H222.072ZM226.741 64.7016H228.409C229.076 64.7016 229.409 64.7016 230.076 64.3717C230.41 64.0419 230.743 63.712 230.743 63.0524C230.743 62.3927 230.41 62.0628 230.076 61.733C229.743 61.4032 229.076 61.4031 228.409 61.4031H226.741V64.7016ZM235.412 67.6701V52.8272H235.746H240.082V67.6701H239.748H235.412Z" fill="#4EAD70"/>
<path fill-rule="evenodd" clip-rule="evenodd" d="M19.5632 51.0318C19.1195 45.7068 20.8945 40.3818 23.1132 35.5005L3.36621 37.4974C6.25061 41.935 9.80064 46.8162 14.6819 49.2569C16.2351 50.1444 17.7882 50.81 19.5632 51.0318Z" fill="#46AC6E"/>
<path fill-rule="evenodd" clip-rule="evenodd" d="M33.9811 70.9999C16.6747 70.9999 1.80899 61.6812 1.36523 37.9404C13.3466 57.6874 25.7716 53.9154 35.9779 49.4779L33.9811 70.9999Z" fill="url(#paint0_linear)"/>
<path fill-rule="evenodd" clip-rule="evenodd" d="M20.6719 18.6369C25.9969 18.1931 31.3219 19.9681 36.2032 22.1869L34.2064 2.43994C29.7688 5.32434 24.8875 8.8743 22.4469 13.7556C21.5594 15.3087 20.8938 16.8619 20.6719 18.6369Z" fill="#46AC6E"/>
<path fill-rule="evenodd" clip-rule="evenodd" d="M0.921876 33.0602C0.921876 15.7538 10.2407 0.888089 33.9815 0.444334C14.2345 12.4257 18.0064 24.8507 22.4439 35.057L0.921876 33.0602Z" fill="url(#paint1_linear)"/>
<path fill-rule="evenodd" clip-rule="evenodd" d="M53.0647 19.7451C53.5084 25.0702 51.7334 30.3952 49.5146 35.2765L69.2616 33.2795C66.3772 28.842 62.8272 23.9607 57.9459 21.5201C56.6147 20.6326 54.8397 20.1889 53.0647 19.7451Z" fill="#46AC6E"/>
<path fill-rule="evenodd" clip-rule="evenodd" d="M38.6444 -8.72877e-08C55.9507 -8.43773e-07 70.8164 9.31887 71.2602 33.0597C59.2788 13.3126 46.8538 17.0845 36.6475 21.522L38.6444 -8.72877e-08Z" fill="url(#paint2_linear)"/>
<path fill-rule="evenodd" clip-rule="evenodd" d="M51.9532 52.3631C46.6282 52.8068 41.3032 50.8099 36.4219 48.813L38.4188 68.56C42.8563 65.6757 47.7376 62.1255 50.1782 57.2443C51.0657 55.6911 51.7314 53.9162 51.9532 52.3631Z" fill="#46AC6E"/>
<path fill-rule="evenodd" clip-rule="evenodd" d="M71.6992 37.7175C71.6992 55.0239 62.3804 69.8896 38.6396 70.3334C58.3867 58.3521 54.6147 45.927 50.1772 35.7207L71.6992 37.7175Z" fill="url(#paint3_linear)"/>
<defs>
<linearGradient id="paint0_linear" x1="1.36524" y1="54.4702" x2="35.9779" y2="54.4702" gradientUnits="userSpaceOnUse">
<stop stop-color="#3AA461" stop-opacity="0.29"/>
<stop offset="1" stop-color="#38A35D"/>
</linearGradient>
<linearGradient id="paint1_linear" x1="0.921876" y1="17.7507" x2="33.9815" y2="17.7507" gradientUnits="userSpaceOnUse">
<stop stop-color="#38A35D"/>
<stop offset="1" stop-color="#3AA461" stop-opacity="0.29"/>
</linearGradient>
<linearGradient id="paint2_linear" x1="36.6475" y1="16.5298" x2="71.2602" y2="16.5298" gradientUnits="userSpaceOnUse">
<stop stop-color="#38A35D"/>
<stop offset="1" stop-color="#3AA461" stop-opacity="0.29"/>
</linearGradient>
<linearGradient id="paint3_linear" x1="38.6396" y1="53.027" x2="71.6992" y2="53.027" gradientUnits="userSpaceOnUse">
<stop stop-color="#3AA461" stop-opacity="0.29"/>
<stop offset="1" stop-color="#38A35D"/>
</linearGradient>
</defs>
</svg>
