<svg width="712" height="42" viewBox="0 0 712 42" fill="none" xmlns="http://www.w3.org/2000/svg">
<path d="M1 41C32.2286 39.6241 57.9084 31.2342 95.1699 29.8239C115.03 29.0723 130.94 30.5352 148.691 32.8083C166.442 35.0814 162.967 36.0629 202.889 37.8153C235.834 39.2614 244.452 23.67 276.735 24.2691C309.018 24.8681 323.949 6.12248 358.032 7.68729C392.116 9.25211 398.926 5.20634 430.965 12.8739C463.003 20.5415 492.604 2.66888 532.823 1.10407C573.041 -0.460739 583.516 16.1479 602.603 15.522C621.69 14.896 638.875 26.7308 655.235 28.4521C671.595 30.1734 676.235 23.9205 711 23.9205" stroke="#2F80ED" stroke-width="2" stroke-linecap="round" stroke-linejoin="round"/>
</svg>
