<svg width="712" height="201" viewBox="0 0 712 201" fill="none" xmlns="http://www.w3.org/2000/svg">
<path d="M1 200C32.2286 193.155 57.9084 151.415 95.1699 144.399C115.03 140.66 130.94 147.938 148.691 159.246C166.442 170.555 162.967 175.438 202.889 184.156C235.834 191.351 244.452 113.783 276.735 116.764C309.018 119.744 323.949 26.4844 358.032 34.2693C392.116 42.0542 398.926 21.9266 430.965 60.0727C463.003 98.2189 492.604 9.3027 532.822 1.51776C573.041 -6.26717 583.516 76.3608 602.603 73.2468C621.69 70.1328 638.875 129.011 655.235 137.574C671.595 146.138 676.235 115.029 711 115.029" stroke="#219653" stroke-width="2" stroke-linecap="round" stroke-linejoin="round"/>
</svg>
