<svg width="712" height="221" viewBox="0 0 712 221" fill="none" xmlns="http://www.w3.org/2000/svg">
<path d="M1 220C30.6038 212.467 54.9476 166.532 90.2704 158.811C109.097 154.696 124.179 162.705 141.007 175.15C157.834 187.595 154.54 192.969 192.385 202.564C223.616 210.481 231.786 125.118 262.389 128.398C292.992 131.678 307.146 29.0456 339.457 37.6129C371.767 46.1803 378.223 24.0297 408.595 66.0097C438.966 107.99 467.027 10.1371 505.153 1.5698C543.279 -6.99754 553.209 83.9347 571.303 80.5078C589.397 77.0808 605.688 141.876 621.196 151.3C636.705 160.724 678.043 126.49 711 126.49" stroke="#EB5757" stroke-width="2" stroke-linecap="round" stroke-linejoin="round"/>
</svg>
