<svg width="712" height="63" viewBox="0 0 712 63" fill="none" xmlns="http://www.w3.org/2000/svg">
<path d="M1 62C32.2286 59.9018 57.9084 47.1071 95.1699 44.9565C115.03 43.8102 130.94 46.0412 148.691 49.5076C166.442 52.9741 162.967 54.4709 202.889 57.1433C235.834 59.3487 244.452 35.5718 276.735 36.4853C309.018 37.3989 323.949 8.81179 358.032 11.1981C392.116 13.5845 398.926 7.41468 430.965 19.1077C463.003 30.8008 492.604 3.54505 532.822 1.15871C573.041 -1.22763 583.516 24.1005 602.603 23.146C621.69 22.1915 638.875 40.2394 655.235 42.8644C671.595 45.4894 676.235 35.9537 711 35.9537" stroke="#9B51E0" stroke-width="2" stroke-linecap="round" stroke-linejoin="round"/>
</svg>
