<svg width="24" height="25" viewBox="0 0 24 25" fill="none" xmlns="http://www.w3.org/2000/svg">
<path d="M19.146 24.5834C17.8385 24.5985 16.5992 24.0011 15.7968 22.9687C14.9943 21.9364 14.721 20.5881 15.0582 19.3247L7.494 15.0013C6.18692 16.1988 4.27099 16.4523 2.6975 15.6358C1.12402 14.8194 0.228135 13.1069 0.45469 11.3488C0.681244 9.5906 1.98198 8.16122 3.71104 7.77033C5.4401 7.37945 7.2292 8.11032 8.19 9.60006L15.057 5.67418C14.9681 5.33849 14.921 4.99312 14.9168 4.64589C14.8995 2.624 16.3037 0.867605 18.2798 0.439468C20.2559 0.0113314 22.2612 1.02904 23.0823 2.87679C23.9033 4.72454 23.3147 6.89487 21.6725 8.07454C20.0304 9.25422 17.7857 9.11925 16.2967 7.75131L8.86425 11.9986C8.85689 12.3119 8.81309 12.6234 8.73375 12.9266L16.2967 17.2488C17.689 15.971 19.7607 15.7738 21.3691 16.7659C22.9776 17.7579 23.7311 19.6978 23.2142 21.5155C22.6973 23.3332 21.0357 24.5862 19.146 24.5834ZM19.146 18.5417C18.1449 18.5417 17.3335 19.3532 17.3335 20.3542C17.3335 21.3552 18.1449 22.1667 19.146 22.1667C20.147 22.1667 20.9585 21.3552 20.9585 20.3542C20.9585 19.3532 20.147 18.5417 19.146 18.5417ZM4.64595 10.0834C3.64494 10.0834 2.83345 10.8949 2.83345 11.8959C2.83345 12.8969 3.64494 13.7084 4.64595 13.7084C5.64697 13.7084 6.45845 12.8969 6.45845 11.8959C6.45845 10.8949 5.64697 10.0834 4.64595 10.0834ZM19.146 2.83339C18.1449 2.83339 17.3335 3.64487 17.3335 4.64589C17.3335 5.64691 18.1449 6.45839 19.146 6.45839C20.147 6.45839 20.9585 5.64691 20.9585 4.64589C20.9585 3.64487 20.147 2.83339 19.146 2.83339Z" fill="white"/>
</svg>
