<svg width="111" height="15" viewBox="0 0 111 15" fill="none" xmlns="http://www.w3.org/2000/svg">
<path d="M0.259233 14H8.87571V12.3061H2.98224V12.2102L5.58381 9.48722C7.98082 7.06463 8.66477 5.90767 8.66477 4.44389C8.66477 2.34091 6.9517 0.730113 4.48438 0.730113C2.03622 0.730113 0.246449 2.31534 0.246449 4.70597H2.1321C2.12571 3.29972 3.03338 2.37926 4.44602 2.37926C5.77557 2.37926 6.78551 3.19744 6.78551 4.50142C6.78551 5.65838 6.09517 6.48935 4.68892 7.97869L0.259233 12.5682V14ZM16.2649 0.909091H14.3409L11.0746 3.04403V4.93608L14.2067 2.89062H14.2834V14H16.2649V0.909091ZM20.3526 14.1214C21.0494 14.1214 21.631 13.5526 21.631 12.843C21.631 12.1463 21.0494 11.571 20.3526 11.571C19.6495 11.571 19.0742 12.1463 19.0742 12.843C19.0742 13.5526 19.6495 14.1214 20.3526 14.1214ZM28.2308 14.2173C31.2543 14.2173 33.0249 11.75 33.0249 7.46094C33.0249 3.20384 31.2287 0.730113 28.2308 0.730113C25.2266 0.730113 23.4368 3.19744 23.4304 7.46094C23.4304 11.7436 25.201 14.2109 28.2308 14.2173ZM28.2308 12.5107C26.4602 12.5107 25.3928 10.7337 25.3928 7.46094C25.3991 4.20099 26.4666 2.40483 28.2308 2.40483C29.9886 2.40483 31.0625 4.20099 31.0625 7.46094C31.0625 10.7337 29.995 12.5107 28.2308 12.5107ZM35.2924 14H43.9089V12.3061H38.0154V12.2102L40.617 9.48722C43.014 7.06463 43.698 5.90767 43.698 4.44389C43.698 2.34091 41.9849 0.730113 39.5176 0.730113C37.0694 0.730113 35.2797 2.31534 35.2797 4.70597H37.1653C37.1589 3.29972 38.0666 2.37926 39.4792 2.37926C40.8088 2.37926 41.8187 3.19744 41.8187 4.50142C41.8187 5.65838 41.1284 6.48935 39.7221 7.97869L35.2924 12.5682V14ZM56.9055 6.62997H51.1016V8.28551H56.9055V6.62997ZM64.1909 14H72.8074V12.3061H66.9139V12.2102L69.5154 9.48722C71.9125 7.06463 72.5964 5.90767 72.5964 4.44389C72.5964 2.34091 70.8833 0.730113 68.416 0.730113C65.9679 0.730113 64.1781 2.31534 64.1781 4.70597H66.0637C66.0574 3.29972 66.965 2.37926 68.3777 2.37926C69.7072 2.37926 70.7172 3.19744 70.7172 4.50142C70.7172 5.65838 70.0268 6.48935 68.6206 7.97869L64.1909 12.5682V14ZM79.8002 14.179C82.536 14.2045 84.3514 12.2358 84.345 9.72372C84.3514 7.21804 82.5297 5.42188 80.2605 5.42188C78.8798 5.42188 77.6845 6.08665 77.0133 7.19247H76.9174C76.9238 4.22017 78.0488 2.45597 79.9664 2.45597C81.2257 2.45597 82.0183 3.22301 82.2868 4.30966H84.2363C83.9359 2.23864 82.3059 0.730113 79.9664 0.730113C76.9238 0.730113 75.0254 3.34446 75.0254 7.8956C75.019 12.7152 77.4735 14.1598 79.8002 14.179ZM79.7939 12.517C78.2725 12.517 77.1603 11.2386 77.1603 9.76847C77.1667 8.30469 78.3301 7.02628 79.8386 7.02628C81.3343 7.02628 82.4338 8.23438 82.4274 9.74929C82.4338 11.2962 81.2896 12.517 79.7939 12.517ZM87.378 14.1214C88.0748 14.1214 88.6564 13.5526 88.6564 12.843C88.6564 12.1463 88.0748 11.571 87.378 11.571C86.6749 11.571 86.0996 12.1463 86.0996 12.843C86.0996 13.5526 86.6749 14.1214 87.378 14.1214ZM95.2562 14.2173C98.2797 14.2173 100.05 11.75 100.05 7.46094C100.05 3.20384 98.2541 0.730113 95.2562 0.730113C92.252 0.730113 90.4622 3.19744 90.4558 7.46094C90.4558 11.7436 92.2264 14.2109 95.2562 14.2173ZM95.2562 12.5107C93.4856 12.5107 92.4181 10.7337 92.4181 7.46094C92.4245 4.20099 93.492 2.40483 95.2562 2.40483C97.014 2.40483 98.0879 4.20099 98.0879 7.46094C98.0879 10.7337 97.0204 12.5107 95.2562 12.5107ZM102.318 14H110.934V12.3061H105.041V12.2102L107.642 9.48722C110.039 7.06463 110.723 5.90767 110.723 4.44389C110.723 2.34091 109.01 0.730113 106.543 0.730113C104.095 0.730113 102.305 2.31534 102.305 4.70597H104.191C104.184 3.29972 105.092 2.37926 106.505 2.37926C107.834 2.37926 108.844 3.19744 108.844 4.50142C108.844 5.65838 108.154 6.48935 106.748 7.97869L102.318 12.5682V14Z" fill="#4F4F4F"/>
</svg>
