<svg width="29" height="13" viewBox="0 0 29 13" fill="none" xmlns="http://www.w3.org/2000/svg">
<path d="M0.931818 9.61364H6.40909V12H7.75V9.61364H9.34091V8.36364H7.75V0.363636H6.04545L0.931818 8.45455V9.61364ZM6.40909 8.36364H2.45455V8.27273L6.31818 2.15909H6.40909V8.36364ZM15.0256 12.1591C17.5938 12.1591 19.0711 9.98295 19.0711 6.18182C19.0711 2.40909 17.5711 0.204545 15.0256 0.204545C12.4802 0.204545 10.9802 2.40909 10.9802 6.18182C10.9802 9.98295 12.4574 12.1591 15.0256 12.1591ZM15.0256 10.9091C13.3324 10.9091 12.3438 9.21023 12.3438 6.18182C12.3438 3.15909 13.3438 1.43182 15.0256 1.43182C16.7074 1.43182 17.7074 3.15909 17.7074 6.18182C17.7074 9.21023 16.7188 10.9091 15.0256 10.9091ZM24.7856 12.1591C27.3538 12.1591 28.8311 9.98295 28.8311 6.18182C28.8311 2.40909 27.3311 0.204545 24.7856 0.204545C22.2402 0.204545 20.7402 2.40909 20.7402 6.18182C20.7402 9.98295 22.2174 12.1591 24.7856 12.1591ZM24.7856 10.9091C23.0924 10.9091 22.1038 9.21023 22.1038 6.18182C22.1038 3.15909 23.1038 1.43182 24.7856 1.43182C26.4674 1.43182 27.4674 3.15909 27.4674 6.18182C27.4674 9.21023 26.4788 10.9091 24.7856 10.9091Z" fill="#4F4F4F"/>
</svg>
