<svg width="442" height="44" viewBox="0 0 442 44" fill="none" xmlns="http://www.w3.org/2000/svg">
<path d="M12.0526 12.255H10.544V0.909091H8.6456V12.2869H2.33026V0.909091H0.43821V14H9.91122V17.0938H11.88L12.0526 12.255ZM18.2976 14.1982C20.4389 14.1982 21.9538 13.1435 22.3885 11.5455L20.5795 11.2195C20.2344 12.1463 19.4034 12.6193 18.3168 12.6193C16.6804 12.6193 15.581 11.5582 15.5298 9.66619H22.5099V8.98864C22.5099 5.44105 20.3878 4.05398 18.1634 4.05398C15.4276 4.05398 13.625 6.13778 13.625 9.15483C13.625 12.2038 15.402 14.1982 18.2976 14.1982ZM15.5362 8.23438C15.6129 6.84091 16.6229 5.63281 18.1761 5.63281C19.6591 5.63281 20.6307 6.73224 20.6371 8.23438H15.5362ZM26.5034 4.18182H24.6305V14H26.5034V9.92188H30.7541V14H32.6206V4.18182H30.7541V8.26634H26.5034V4.18182ZM39.313 14.1982C42.0808 14.1982 43.8897 12.1719 43.8897 9.13565C43.8897 6.08026 42.0808 4.05398 39.313 4.05398C36.5453 4.05398 34.7363 6.08026 34.7363 9.13565C34.7363 12.1719 36.5453 14.1982 39.313 14.1982ZM39.3194 12.5938C37.5105 12.5938 36.6667 11.0149 36.6667 9.12926C36.6667 7.25 37.5105 5.65199 39.3194 5.65199C41.1156 5.65199 41.9593 7.25 41.9593 9.12926C41.9593 11.0149 41.1156 12.5938 39.3194 12.5938ZM46.0231 14H50.7148C52.8626 14 54.1218 12.9134 54.1218 11.3537C54.1218 9.89631 53.0032 9.00142 51.6928 8.84801C52.9009 8.6179 53.6999 7.95312 53.6999 6.80256C53.6999 5.19176 52.3065 4.18182 50.0948 4.18182H46.0231V14ZM47.8192 12.402V9.67259H50.7148C51.6609 9.67259 52.2298 10.2287 52.2298 11.1428C52.2298 11.9226 51.6609 12.402 50.7148 12.402H47.8192ZM47.8192 8.27273V5.79901H50.0948C51.1815 5.79901 51.8398 6.25284 51.8398 7.0071C51.8398 7.79332 51.1879 8.27273 50.114 8.27273H47.8192ZM60.354 14.1982C63.1218 14.1982 64.9308 12.1719 64.9308 9.13565C64.9308 6.08026 63.1218 4.05398 60.354 4.05398C57.5863 4.05398 55.7773 6.08026 55.7773 9.13565C55.7773 12.1719 57.5863 14.1982 60.354 14.1982ZM60.3604 12.5938C58.5515 12.5938 57.7077 11.0149 57.7077 9.12926C57.7077 7.25 58.5515 5.65199 60.3604 5.65199C62.1566 5.65199 63.0004 7.25 63.0004 9.12926C63.0004 11.0149 62.1566 12.5938 60.3604 12.5938ZM68.937 11.3217V4.18182H67.0641V14H69.1415L73.4498 6.85369V14H75.3226V4.18182H73.2644L68.937 11.3217ZM72.4462 0.857954C72.4462 1.50355 72.0882 2.07244 71.1934 2.07244C70.2857 2.07244 69.9469 1.49716 69.9469 0.857954H68.3809C68.3809 2.29616 69.4739 3.28693 71.1934 3.28693C72.9256 3.28693 74.0186 2.29616 74.0186 0.857954H72.4462ZM84.5288 11.3217V4.18182H82.6559V14H84.7333L89.0415 6.85369V14H90.9144V4.18182H88.8562L84.5288 11.3217ZM95.3569 4.18182H93.484V14H95.3569V9.92188H99.6076V14H101.474V4.18182H99.6076V8.26634H95.3569V4.18182ZM103.072 16.8317H104.964V14H111.81V16.8317H113.676V12.3445H112.168V4.18182H105.495L105.188 7.84446C104.983 10.3182 104.683 11.6094 103.871 12.3445H103.072V16.8317ZM105.917 12.3445C106.569 11.4304 106.811 9.90909 107.003 7.84446L107.208 5.81818H110.301V12.3445H105.917ZM119.776 14.1982C121.917 14.1982 123.432 13.1435 123.867 11.5455L122.058 11.2195C121.713 12.1463 120.882 12.6193 119.795 12.6193C118.159 12.6193 117.059 11.5582 117.008 9.66619H123.988V8.98864C123.988 5.44105 121.866 4.05398 119.642 4.05398C116.906 4.05398 115.104 6.13778 115.104 9.15483C115.104 12.2038 116.881 14.1982 119.776 14.1982ZM117.015 8.23438C117.091 6.84091 118.101 5.63281 119.655 5.63281C121.138 5.63281 122.109 6.73224 122.116 8.23438H117.015ZM126.109 14H128.02V10.0753H129.26L132.22 14H134.591L130.743 8.95668L134.547 4.18182H132.181L128.941 8.2983H128.02V4.18182H126.109V14ZM139.807 14.1982C142.127 14.1982 143.63 12.8047 143.841 10.8935H141.98C141.738 11.9545 140.913 12.581 139.82 12.581C138.203 12.581 137.161 11.2322 137.161 9.09091C137.161 6.98793 138.222 5.66477 139.82 5.66477C141.034 5.66477 141.776 6.43182 141.98 7.35227H143.841C143.636 5.37074 142.019 4.05398 139.788 4.05398C137.02 4.05398 135.23 6.13778 135.23 9.13565C135.23 12.0952 136.956 14.1982 139.807 14.1982ZM152.521 4.18182H150.648V14H152.521V9.92188H156.772V14H158.638V4.18182H156.772V8.26634H152.521V4.18182ZM164.052 14.2173C165.676 14.2173 166.59 13.3928 166.954 12.6577H167.031V14H168.897V7.48011C168.897 4.62287 166.647 4.05398 165.088 4.05398C163.311 4.05398 161.674 4.76989 161.035 6.55966L162.831 6.96875C163.113 6.27202 163.828 5.60085 165.113 5.60085C166.347 5.60085 166.98 6.24645 166.98 7.35866V7.40341C166.98 8.10014 166.264 8.08736 164.5 8.2919C162.64 8.50923 160.735 8.99503 160.735 11.2259C160.735 13.1562 162.186 14.2173 164.052 14.2173ZM164.468 12.6832C163.387 12.6832 162.608 12.1974 162.608 11.2514C162.608 10.2287 163.515 9.86435 164.621 9.71733C165.241 9.63423 166.711 9.46804 166.986 9.19318V10.4588C166.986 11.6222 166.059 12.6832 164.468 12.6832ZM180.342 14.1982C183.11 14.1982 184.919 12.1719 184.919 9.13565C184.919 6.08026 183.11 4.05398 180.342 4.05398C177.575 4.05398 175.766 6.08026 175.766 9.13565C175.766 12.1719 177.575 14.1982 180.342 14.1982ZM180.349 12.5938C178.54 12.5938 177.696 11.0149 177.696 9.12926C177.696 7.25 178.54 5.65199 180.349 5.65199C182.145 5.65199 182.989 7.25 182.989 9.12926C182.989 11.0149 182.145 12.5938 180.349 12.5938ZM191.188 14.1982C193.508 14.1982 195.01 12.8047 195.221 10.8935H193.361C193.118 11.9545 192.294 12.581 191.201 12.581C189.584 12.581 188.542 11.2322 188.542 9.09091C188.542 6.98793 189.603 5.66477 191.201 5.66477C192.415 5.66477 193.157 6.43182 193.361 7.35227H195.221C195.017 5.37074 193.4 4.05398 191.169 4.05398C188.401 4.05398 186.611 6.13778 186.611 9.13565C186.611 12.0952 188.337 14.1982 191.188 14.1982ZM199.138 4.18182H197.265V14H199.138V9.92188H203.389V14H205.255V4.18182H203.389V8.26634H199.138V4.18182ZM211.948 14.1982C214.716 14.1982 216.525 12.1719 216.525 9.13565C216.525 6.08026 214.716 4.05398 211.948 4.05398C209.18 4.05398 207.371 6.08026 207.371 9.13565C207.371 12.1719 209.18 14.1982 211.948 14.1982ZM211.954 12.5938C210.145 12.5938 209.301 11.0149 209.301 9.12926C209.301 7.25 210.145 5.65199 211.954 5.65199C213.75 5.65199 214.594 7.25 214.594 9.12926C214.594 11.0149 213.75 12.5938 211.954 12.5938ZM218.658 14H223.35C225.497 14 226.757 12.9134 226.757 11.3537C226.757 9.89631 225.638 9.00142 224.328 8.84801C225.536 8.6179 226.335 7.95312 226.335 6.80256C226.335 5.19176 224.941 4.18182 222.73 4.18182H218.658V14ZM220.454 12.402V9.67259H223.35C224.296 9.67259 224.865 10.2287 224.865 11.1428C224.865 11.9226 224.296 12.402 223.35 12.402H220.454ZM220.454 8.27273V5.79901H222.73C223.816 5.79901 224.475 6.25284 224.475 7.0071C224.475 7.79332 223.823 8.27273 222.749 8.27273H220.454ZM230.726 4.18182H228.853V14H230.726V9.92188H234.977V14H236.843V4.18182H234.977V8.26634H230.726V4.18182ZM241.273 7.55682V4.18182H239.4V14H243.689C246.093 14 247.435 12.6065 247.435 10.7592C247.435 8.87358 246.093 7.55682 243.689 7.55682H241.273ZM248.828 14H250.74V4.18182H248.828V14ZM241.273 9.20597H243.689C244.789 9.20597 245.575 9.87074 245.575 10.8168C245.575 11.7116 244.789 12.3509 243.689 12.3509H241.273V9.20597ZM257.536 14.1982C259.677 14.1982 261.192 13.1435 261.627 11.5455L259.818 11.2195C259.473 12.1463 258.642 12.6193 257.555 12.6193C255.919 12.6193 254.819 11.5582 254.768 9.66619H261.748V8.98864C261.748 5.44105 259.626 4.05398 257.402 4.05398C254.666 4.05398 252.863 6.13778 252.863 9.15483C252.863 12.2038 254.64 14.1982 257.536 14.1982ZM254.775 8.23438C254.851 6.84091 255.861 5.63281 257.414 5.63281C258.897 5.63281 259.869 6.73224 259.875 8.23438H254.775ZM268.632 14H273.324C275.472 14 276.731 12.9134 276.731 11.3537C276.731 9.89631 275.613 9.00142 274.302 8.84801C275.51 8.6179 276.309 7.95312 276.309 6.80256C276.309 5.19176 274.916 4.18182 272.704 4.18182H268.632V14ZM270.429 12.402V9.67259H273.324C274.27 9.67259 274.839 10.2287 274.839 11.1428C274.839 11.9226 274.27 12.402 273.324 12.402H270.429ZM270.429 8.27273V5.79901H272.704C273.791 5.79901 274.449 6.25284 274.449 7.0071C274.449 7.79332 273.797 8.27273 272.723 8.27273H270.429ZM280.701 11.3217V4.18182H278.828V14H280.905L285.213 6.85369V14H287.086V4.18182H285.028L280.701 11.3217ZM288.697 16.8317H290.589V14H297.435V16.8317H299.301V12.3445H297.793V4.18182H291.12L290.813 7.84446C290.608 10.3182 290.308 11.6094 289.496 12.3445H288.697V16.8317ZM291.542 12.3445C292.194 11.4304 292.436 9.90909 292.628 7.84446L292.833 5.81818H295.926V12.3445H291.542ZM303.042 7.55682V4.18182H301.17V14H305.459C307.862 14 309.204 12.6065 309.204 10.7592C309.204 8.87358 307.862 7.55682 305.459 7.55682H303.042ZM310.598 14H312.509V4.18182H310.598V14ZM303.042 9.20597H305.459C306.558 9.20597 307.344 9.87074 307.344 10.8168C307.344 11.7116 306.558 12.3509 305.459 12.3509H303.042V9.20597ZM319.838 14H321.698V5.83097H325.974V14H327.847V4.18182H319.838V14ZM330.402 17.6818H332.313V12.4723H332.428C332.773 13.0987 333.477 14.1918 335.266 14.1918C337.644 14.1918 339.37 12.2869 339.37 9.11009C339.37 5.92685 337.619 4.05398 335.247 4.05398C333.425 4.05398 332.767 5.16619 332.428 5.77344H332.268V4.18182H330.402V17.6818ZM332.275 9.09091C332.275 7.03906 333.17 5.67756 334.838 5.67756C336.57 5.67756 337.44 7.14134 337.44 9.09091C337.44 11.0597 336.545 12.5618 334.838 12.5618C333.195 12.5618 332.275 11.1555 332.275 9.09091ZM345.647 14.1982C348.415 14.1982 350.224 12.1719 350.224 9.13565C350.224 6.08026 348.415 4.05398 345.647 4.05398C342.879 4.05398 341.07 6.08026 341.07 9.13565C341.07 12.1719 342.879 14.1982 345.647 14.1982ZM345.653 12.5938C343.844 12.5938 343.001 11.0149 343.001 9.12926C343.001 7.25 343.844 5.65199 345.653 5.65199C347.45 5.65199 348.293 7.25 348.293 9.12926C348.293 11.0149 347.45 12.5938 345.653 12.5938ZM351.398 16.8317H353.29V14H360.136V16.8317H362.003V12.3445H360.494V4.18182H353.821L353.514 7.84446C353.309 10.3182 353.009 11.6094 352.197 12.3445H351.398V16.8317ZM354.243 12.3445C354.895 11.4304 355.138 9.90909 355.329 7.84446L355.534 5.81818H358.628V12.3445H354.243ZM365.079 17.6818C366.658 17.6818 367.655 16.8572 368.224 15.3104L372.283 4.20099L370.218 4.18182L367.732 11.8011H367.629L365.143 4.18182H363.097L366.69 14.1278L366.453 14.7798C365.967 16.0838 365.283 16.1925 364.235 15.9048L363.775 17.4709C364.005 17.5732 364.504 17.6818 365.079 17.6818ZM374.084 14H375.995V10.0753H377.235L380.194 14H382.566L378.718 8.95668L382.521 4.18182H380.156L376.915 8.2983H375.995V4.18182H374.084V14ZM392.053 4.18182H390.193V12.3509H385.917V4.18182H384.044V14H391.612V17.1641H393.504V12.4339H392.053V4.18182ZM397.49 11.3217V4.18182H395.617V14H397.694L402.002 6.85369V14H403.875V4.18182H401.817L397.49 11.3217ZM408.318 11.3217V4.18182H406.445V14H408.522L412.831 6.85369V14H414.703V4.18182H412.645L408.318 11.3217ZM8.28764 30.1818H6.42756V38.3509H2.15128V30.1818H0.278409V40H7.84659V43.1641H9.73864V38.4339H8.28764V30.1818ZM15.9773 40.1982C18.1186 40.1982 19.6335 39.1435 20.0682 37.5455L18.2592 37.2195C17.9141 38.1463 17.0831 38.6193 15.9964 38.6193C14.3601 38.6193 13.2607 37.5582 13.2095 35.6662H20.1896V34.9886C20.1896 31.4411 18.0675 30.054 15.843 30.054C13.1072 30.054 11.3047 32.1378 11.3047 35.1548C11.3047 38.2038 13.0817 40.1982 15.9773 40.1982ZM13.2159 34.2344C13.2926 32.8409 14.3026 31.6328 15.8558 31.6328C17.3388 31.6328 18.3104 32.7322 18.3168 34.2344H13.2159ZM21.5368 40H22.1504C24.2917 40 25.0779 38.4148 25.2314 35.1676L25.3848 31.831H28.5936V40H30.4664V30.1818H23.6142L23.4416 34.5284C23.3201 37.5582 22.975 38.3445 21.8819 38.3445H21.5304L21.5368 40ZM32.2418 40H32.8555C34.9968 40 35.783 38.4148 35.9364 35.1676L36.0898 31.831H39.2987V40H41.1715V30.1818H34.3192L34.1467 34.5284C34.0252 37.5582 33.68 38.3445 32.587 38.3445H32.2354L32.2418 40ZM44.9796 30.1818H43.0684V40H44.9796V35.9986H47.1657C47.4789 38.5362 49.1855 40.1982 51.6529 40.1982C54.4015 40.1982 56.1976 38.1463 56.1976 35.1293C56.1976 32.0866 54.4015 30.054 51.6529 30.054C49.1536 30.054 47.4469 31.7415 47.1593 34.3366H44.9796V30.1818ZM51.6529 38.5618C49.8056 38.5618 48.981 37.0021 48.981 35.1293C48.981 33.25 49.8056 31.6776 51.6529 31.6776C53.5066 31.6776 54.3248 33.2564 54.3248 35.1293C54.3248 36.9957 53.5066 38.5618 51.6529 38.5618ZM57.6774 40H58.291C60.4324 40 61.2186 38.4148 61.372 35.1676L61.5254 31.831H64.7342V40H66.6071V30.1818H59.7548L59.5822 34.5284C59.4608 37.5582 59.1156 38.3445 58.0225 38.3445H57.671L57.6774 40ZM73.2915 40.1982C76.0593 40.1982 77.8683 38.1719 77.8683 35.1357C77.8683 32.0803 76.0593 30.054 73.2915 30.054C70.5238 30.054 68.7148 32.0803 68.7148 35.1357C68.7148 38.1719 70.5238 40.1982 73.2915 40.1982ZM73.2979 38.5938C71.489 38.5938 70.6452 37.0149 70.6452 35.1293C70.6452 33.25 71.489 31.652 73.2979 31.652C75.0941 31.652 75.9379 33.25 75.9379 35.1293C75.9379 37.0149 75.0941 38.5938 73.2979 38.5938ZM79.4199 37.4048C79.4775 39.1179 81.0819 40.1982 83.2615 40.1982C85.4988 40.1982 87.1159 39.0732 87.1159 37.2706C87.1159 35.9922 86.3042 35.0462 85.1664 34.9695V34.8672C86.1955 34.5732 86.905 33.8828 86.905 32.8026C86.905 31.1918 85.5243 30.054 83.3382 30.054C81.2417 30.054 79.7012 31.1726 79.6628 32.8217H81.5932C81.6316 32.0866 82.3922 31.5753 83.4341 31.5753C84.4632 31.5753 85.0641 32.1122 85.0641 32.9112C85.0641 33.6591 84.5272 34.2088 83.4469 34.2088H81.8489V35.7109H83.4469C84.5336 35.7109 85.2303 36.3118 85.2303 37.2003C85.2303 38.2038 84.3418 38.6577 83.2424 38.6577C82.1621 38.6577 81.4334 38.2102 81.3759 37.4048H79.4199ZM90.9624 30.1818H89.0895V40H90.9624V35.9219H95.2131V40H97.0795V30.1818H95.2131V34.2663H90.9624V30.1818ZM103.772 40.1982C106.54 40.1982 108.349 38.1719 108.349 35.1357C108.349 32.0803 106.54 30.054 103.772 30.054C101.004 30.054 99.1953 32.0803 99.1953 35.1357C99.1953 38.1719 101.004 40.1982 103.772 40.1982ZM103.778 38.5938C101.969 38.5938 101.126 37.0149 101.126 35.1293C101.126 33.25 101.969 31.652 103.778 31.652C105.575 31.652 106.418 33.25 106.418 35.1293C106.418 37.0149 105.575 38.5938 103.778 38.5938ZM116.267 33.6399H110.463V35.2955H116.267V33.6399ZM126.389 26.5256C125.909 26.9091 125.181 26.9091 124.164 26.9027C123.864 26.9027 123.538 26.9027 123.18 26.9091C119.997 26.973 118.386 29.2358 118.386 33.723V34.6946C118.386 38.2997 120.176 40.1982 122.918 40.1982C125.66 40.1982 127.437 38.2933 127.437 35.2379C127.437 32.2209 125.692 30.5526 123.327 30.5526C121.901 30.5526 120.713 31.1598 120.073 32.3743H119.952C120.169 29.8878 121.102 28.6541 123.225 28.5902C125.11 28.5327 126.306 28.5391 127.181 27.7337L126.389 26.5256ZM122.924 38.5938C121.301 38.5938 120.31 37.2962 120.31 35.2699C120.335 33.282 121.313 32.1442 122.905 32.1442C124.522 32.1442 125.507 33.282 125.507 35.2699C125.507 37.3026 124.522 38.5938 122.924 38.5938ZM130.78 43.6818C132.359 43.6818 133.356 42.8572 133.925 41.3104L137.984 30.201L135.919 30.1818L133.433 37.8011H133.33L130.844 30.1818H128.798L132.391 40.1278L132.154 40.7798C131.669 42.0838 130.985 42.1925 129.936 41.9048L129.476 43.4709C129.706 43.5732 130.205 43.6818 130.78 43.6818ZM145.295 37.6349L142.188 30.1818H139.785V40H141.658V32.8601L144.585 40H146.004L148.983 32.8857V40H150.843V30.1818H148.465L145.295 37.6349ZM156.248 40.2173C157.871 40.2173 158.785 39.3928 159.15 38.6577H159.226V40H161.093V33.4801C161.093 30.6229 158.843 30.054 157.283 30.054C155.506 30.054 153.87 30.7699 153.23 32.5597L155.027 32.9688C155.308 32.272 156.024 31.6009 157.309 31.6009C158.542 31.6009 159.175 32.2464 159.175 33.3587V33.4034C159.175 34.1001 158.459 34.0874 156.695 34.2919C154.835 34.5092 152.93 34.995 152.93 37.2259C152.93 39.1562 154.381 40.2173 156.248 40.2173ZM156.663 38.6832C155.583 38.6832 154.803 38.1974 154.803 37.2514C154.803 36.2287 155.711 35.8643 156.816 35.7173C157.436 35.6342 158.907 35.468 159.181 35.1932V36.4588C159.181 37.6222 158.255 38.6832 156.663 38.6832ZM163.012 40H165.281L168.362 35.9091H169.001V40H170.912V35.9091H171.552L174.613 40H176.883L173.099 34.9759L176.838 30.1818H174.613L171.577 34.2599H170.912V30.1818H169.001V34.2599H168.317L165.281 30.1818H163.057L166.815 34.9759L163.012 40ZM180.699 30.1818H178.826V40H180.699V35.9219H184.949V40H186.816V30.1818H184.949V34.2663H180.699V30.1818ZM193.508 40.1982C196.276 40.1982 198.085 38.1719 198.085 35.1357C198.085 32.0803 196.276 30.054 193.508 30.054C190.741 30.054 188.932 32.0803 188.932 35.1357C188.932 38.1719 190.741 40.1982 193.508 40.1982ZM193.515 38.5938C191.706 38.5938 190.862 37.0149 190.862 35.1293C190.862 33.25 191.706 31.652 193.515 31.652C195.311 31.652 196.155 33.25 196.155 35.1293C196.155 37.0149 195.311 38.5938 193.515 38.5938ZM202.091 37.3217V30.1818H200.218V40H202.296L206.604 32.8537V40H208.477V30.1818H206.419L202.091 37.3217ZM205.6 26.858C205.6 27.5036 205.243 28.0724 204.348 28.0724C203.44 28.0724 203.101 27.4972 203.101 26.858H201.535C201.535 28.2962 202.628 29.2869 204.348 29.2869C206.08 29.2869 207.173 28.2962 207.173 26.858H205.6ZM215.81 40H217.67V31.831H221.947V40H223.819V30.1818H215.81V40ZM226.375 43.6818H228.286V38.4723H228.401C228.746 39.0987 229.449 40.1918 231.239 40.1918C233.617 40.1918 235.343 38.2869 235.343 35.1101C235.343 31.9268 233.591 30.054 231.22 30.054C229.398 30.054 228.74 31.1662 228.401 31.7734H228.241V30.1818H226.375V43.6818ZM228.248 35.0909C228.248 33.0391 229.142 31.6776 230.811 31.6776C232.543 31.6776 233.412 33.1413 233.412 35.0909C233.412 37.0597 232.517 38.5618 230.811 38.5618C229.168 38.5618 228.248 37.1555 228.248 35.0909ZM241.62 40.1982C244.387 40.1982 246.196 38.1719 246.196 35.1357C246.196 32.0803 244.387 30.054 241.62 30.054C238.852 30.054 237.043 32.0803 237.043 35.1357C237.043 38.1719 238.852 40.1982 241.62 40.1982ZM241.626 38.5938C239.817 38.5938 238.973 37.0149 238.973 35.1293C238.973 33.25 239.817 31.652 241.626 31.652C243.422 31.652 244.266 33.25 244.266 35.1293C244.266 37.0149 243.422 38.5938 241.626 38.5938ZM253.84 37.6349L250.733 30.1818H248.33V40H250.203V32.8601L253.13 40H254.549L257.528 32.8857V40H259.388V30.1818H257.01L253.84 37.6349ZM263.808 33.5568V30.1818H261.935V40H266.224C268.628 40 269.97 38.6065 269.97 36.7592C269.97 34.8736 268.628 33.5568 266.224 33.5568H263.808ZM271.363 40H273.275V30.1818H271.363V40ZM263.808 35.206H266.224C267.324 35.206 268.11 35.8707 268.11 36.8168C268.11 37.7116 267.324 38.3509 266.224 38.3509H263.808V35.206ZM275.839 30.1818V40H288.246V30.1818H286.374V38.3445H282.979V30.1818H281.107V38.3445H277.712V30.1818H275.839ZM290.025 40H290.639C292.78 40 293.566 38.4148 293.72 35.1676L293.873 31.831H297.082V40H298.955V30.1818H292.102L291.93 34.5284C291.808 37.5582 291.463 38.3445 290.37 38.3445H290.019L290.025 40ZM305.735 40.1982C307.876 40.1982 309.391 39.1435 309.826 37.5455L308.017 37.2195C307.672 38.1463 306.841 38.6193 305.754 38.6193C304.118 38.6193 303.018 37.5582 302.967 35.6662H309.947V34.9886C309.947 31.4411 307.825 30.054 305.601 30.054C302.865 30.054 301.062 32.1378 301.062 35.1548C301.062 38.2038 302.839 40.1982 305.735 40.1982ZM302.974 34.2344C303.05 32.8409 304.06 31.6328 305.614 31.6328C307.097 31.6328 308.068 32.7322 308.075 34.2344H302.974ZM313.941 30.1818H312.068V40H313.941V35.9219H318.192V40H320.058V30.1818H318.192V34.2663H313.941V30.1818ZM324.488 30.1818H322.615V40H324.488V35.9219H328.738V40H330.605V30.1818H328.738V34.2663H324.488V30.1818ZM337.297 40.1982C340.065 40.1982 341.874 38.1719 341.874 35.1357C341.874 32.0803 340.065 30.054 337.297 30.054C334.53 30.054 332.721 32.0803 332.721 35.1357C332.721 38.1719 334.53 40.1982 337.297 40.1982ZM337.304 38.5938C335.495 38.5938 334.651 37.0149 334.651 35.1293C334.651 33.25 335.495 31.652 337.304 31.652C339.1 31.652 339.944 33.25 339.944 35.1293C339.944 37.0149 339.1 38.5938 337.304 38.5938ZM348.143 40.1982C350.463 40.1982 351.966 38.8047 352.176 36.8935H350.316C350.074 37.9545 349.249 38.581 348.156 38.581C346.539 38.581 345.497 37.2322 345.497 35.0909C345.497 32.9879 346.558 31.6648 348.156 31.6648C349.37 31.6648 350.112 32.4318 350.316 33.3523H352.176C351.972 31.3707 350.355 30.054 348.124 30.054C345.356 30.054 343.566 32.1378 343.566 35.1357C343.566 38.0952 345.292 40.1982 348.143 40.1982ZM353.477 31.831H356.692V40H358.559V31.831H361.761V30.1818H353.477V31.831ZM365.656 37.3217V30.1818H363.783V40H365.86L370.169 32.8537V40H372.041V30.1818H369.983L365.656 37.3217ZM379.528 40H381.503V35.3977H384.188C387.224 35.3977 388.726 33.5632 388.726 31.147C388.726 28.7372 387.237 26.9091 384.194 26.9091H379.528V40ZM381.503 33.723V28.603H383.983C385.939 28.603 386.738 29.6641 386.738 31.147C386.738 32.63 385.939 33.723 384.009 33.723H381.503ZM394.901 40.1982C397.669 40.1982 399.478 38.1719 399.478 35.1357C399.478 32.0803 397.669 30.054 394.901 30.054C392.133 30.054 390.324 32.0803 390.324 35.1357C390.324 38.1719 392.133 40.1982 394.901 40.1982ZM394.907 38.5938C393.098 38.5938 392.255 37.0149 392.255 35.1293C392.255 33.25 393.098 31.652 394.907 31.652C396.703 31.652 397.547 33.25 397.547 35.1293C397.547 37.0149 396.703 38.5938 394.907 38.5938ZM405.747 40.1982C408.067 40.1982 409.569 38.8047 409.78 36.8935H407.92C407.677 37.9545 406.852 38.581 405.759 38.581C404.142 38.581 403.1 37.2322 403.1 35.0909C403.1 32.9879 404.161 31.6648 405.759 31.6648C406.974 31.6648 407.715 32.4318 407.92 33.3523H409.78C409.575 31.3707 407.958 30.054 405.727 30.054C402.96 30.054 401.17 32.1378 401.17 35.1357C401.17 38.0952 402.896 40.1982 405.747 40.1982ZM415.96 40.1982C418.28 40.1982 419.782 38.8047 419.993 36.8935H418.133C417.89 37.9545 417.065 38.581 415.972 38.581C414.355 38.581 413.313 37.2322 413.313 35.0909C413.313 32.9879 414.374 31.6648 415.972 31.6648C417.187 31.6648 417.928 32.4318 418.133 33.3523H419.993C419.788 31.3707 418.171 30.054 415.94 30.054C413.173 30.054 411.383 32.1378 411.383 35.1357C411.383 38.0952 413.109 40.1982 415.96 40.1982ZM423.91 37.3217V30.1818H422.037V40H424.114L428.422 32.8537V40H430.295V30.1818H428.237L423.91 37.3217ZM434.738 37.3217V30.1818H432.865V40H434.942L439.251 32.8537V40H441.123V30.1818H439.065L434.738 37.3217Z" fill="#333333"/>
</svg>
