<svg width="27" height="13" viewBox="0 0 27 13" fill="none" xmlns="http://www.w3.org/2000/svg">
<path d="M5.29545 0.363636H3.88636L0.977273 2.29545V3.72727L3.81818 1.84091H3.88636V12H5.29545V0.363636ZM12.1975 12.1591C14.7657 12.1591 16.243 9.98295 16.243 6.18182C16.243 2.40909 14.743 0.204545 12.1975 0.204545C9.65205 0.204545 8.15205 2.40909 8.15205 6.18182C8.15205 9.98295 9.62932 12.1591 12.1975 12.1591ZM12.1975 10.9091C10.5043 10.9091 9.51568 9.21023 9.51568 6.18182C9.51568 3.15909 10.5157 1.43182 12.1975 1.43182C13.8793 1.43182 14.8793 3.15909 14.8793 6.18182C14.8793 9.21023 13.8907 10.9091 12.1975 10.9091ZM21.9575 12.1591C24.5257 12.1591 26.003 9.98295 26.003 6.18182C26.003 2.40909 24.503 0.204545 21.9575 0.204545C19.412 0.204545 17.912 2.40909 17.912 6.18182C17.912 9.98295 19.3893 12.1591 21.9575 12.1591ZM21.9575 10.9091C20.2643 10.9091 19.2757 9.21023 19.2757 6.18182C19.2757 3.15909 20.2757 1.43182 21.9575 1.43182C23.6393 1.43182 24.6393 3.15909 24.6393 6.18182C24.6393 9.21023 23.6507 10.9091 21.9575 10.9091Z" fill="#4F4F4F"/>
</svg>
