<svg width="28" height="13" viewBox="0 0 28 13" fill="none" xmlns="http://www.w3.org/2000/svg">
<path d="M3.84091 12.1591C6.05682 12.1591 7.68182 10.5227 7.68182 8.29545C7.68182 6.03977 6.11364 4.38636 3.97727 4.38636C3.19318 4.38636 2.43182 4.66477 1.95455 5.04545H1.88636L2.29545 1.61364H7.15909V0.363636H1.11364L0.409091 6.09091L1.72727 6.25C2.21023 5.90341 3.03409 5.65341 3.75 5.65909C5.23295 5.67045 6.31818 6.79545 6.31818 8.31818C6.31818 9.8125 5.27273 10.9091 3.84091 10.9091C2.64773 10.9091 1.69886 10.142 1.59091 9.09091H0.227273C0.3125 10.8636 1.84091 12.1591 3.84091 12.1591ZM13.4944 12.1591C16.0626 12.1591 17.5398 9.98295 17.5398 6.18182C17.5398 2.40909 16.0398 0.204545 13.4944 0.204545C10.9489 0.204545 9.44892 2.40909 9.44892 6.18182C9.44892 9.98295 10.9262 12.1591 13.4944 12.1591ZM13.4944 10.9091C11.8012 10.9091 10.8126 9.21023 10.8126 6.18182C10.8126 3.15909 11.8126 1.43182 13.4944 1.43182C15.1762 1.43182 16.1762 3.15909 16.1762 6.18182C16.1762 9.21023 15.1876 10.9091 13.4944 10.9091ZM23.2544 12.1591C25.8226 12.1591 27.2998 9.98295 27.2998 6.18182C27.2998 2.40909 25.7998 0.204545 23.2544 0.204545C20.7089 0.204545 19.2089 2.40909 19.2089 6.18182C19.2089 9.98295 20.6862 12.1591 23.2544 12.1591ZM23.2544 10.9091C21.5612 10.9091 20.5726 9.21023 20.5726 6.18182C20.5726 3.15909 21.5726 1.43182 23.2544 1.43182C24.9362 1.43182 25.9362 3.15909 25.9362 6.18182C25.9362 9.21023 24.9476 10.9091 23.2544 10.9091Z" fill="#4F4F4F"/>
</svg>
