<svg width="28" height="13" viewBox="0 0 28 13" fill="none" xmlns="http://www.w3.org/2000/svg">
<path d="M4.13636 12.1591C6.39205 12.1591 8.06818 10.7443 8.06818 8.84091C8.06818 7.36364 7.19318 6.28977 5.72727 6.04545V5.95455C6.90341 5.59659 7.63636 4.63068 7.63636 3.31818C7.63636 1.67045 6.33523 0.204545 4.18182 0.204545C2.17045 0.204545 0.5 1.44318 0.431818 3.27273H1.79545C1.84659 2.11364 2.94886 1.43182 4.15909 1.43182C5.44318 1.43182 6.27273 2.21023 6.27273 3.38636C6.27273 4.61364 5.3125 5.40909 3.93182 5.40909H3V6.65909H3.93182C5.69886 6.65909 6.68182 7.55682 6.68182 8.84091C6.68182 10.0739 5.60795 10.9091 4.11364 10.9091C2.76705 10.9091 1.69886 10.2159 1.61364 9.09091H0.181818C0.267045 10.9205 1.88068 12.1591 4.13636 12.1591ZM13.9475 12.1591C16.5157 12.1591 17.993 9.98295 17.993 6.18182C17.993 2.40909 16.493 0.204545 13.9475 0.204545C11.402 0.204545 9.90205 2.40909 9.90205 6.18182C9.90205 9.98295 11.3793 12.1591 13.9475 12.1591ZM13.9475 10.9091C12.2543 10.9091 11.2657 9.21023 11.2657 6.18182C11.2657 3.15909 12.2657 1.43182 13.9475 1.43182C15.6293 1.43182 16.6293 3.15909 16.6293 6.18182C16.6293 9.21023 15.6407 10.9091 13.9475 10.9091ZM23.7075 12.1591C26.2757 12.1591 27.753 9.98295 27.753 6.18182C27.753 2.40909 26.253 0.204545 23.7075 0.204545C21.162 0.204545 19.662 2.40909 19.662 6.18182C19.662 9.98295 21.1393 12.1591 23.7075 12.1591ZM23.7075 10.9091C22.0143 10.9091 21.0257 9.21023 21.0257 6.18182C21.0257 3.15909 22.0257 1.43182 23.7075 1.43182C25.3893 1.43182 26.3893 3.15909 26.3893 6.18182C26.3893 9.21023 25.4007 10.9091 23.7075 10.9091Z" fill="#4F4F4F"/>
</svg>
