<svg width="28" height="13" viewBox="0 0 28 13" fill="none" xmlns="http://www.w3.org/2000/svg">
<path d="M4.06818 12.1591C6.42045 12.1875 7.95455 10.4148 7.95455 8.25C7.95455 6 6.28977 4.38636 4.29545 4.38636C3.09659 4.38636 2.06818 4.97159 1.43182 5.93182H1.34091C1.34659 3.09659 2.44886 1.45455 4.25 1.45455C5.47727 1.45455 6.21591 2.22727 6.47727 3.27273H7.86364C7.57955 1.46591 6.20455 0.204545 4.25 0.204545C1.63068 0.204545 0.0227273 2.52273 0.0227273 6.63636C0.0227273 10.9375 2.15909 12.1364 4.06818 12.1591ZM4.06818 10.9091C2.60795 10.9091 1.53977 9.66477 1.54545 8.27273C1.55114 6.88068 2.67045 5.63636 4.11364 5.63636C5.53977 5.63636 6.59091 6.80682 6.59091 8.25C6.59091 9.72727 5.49432 10.9091 4.06818 10.9091ZM13.7444 12.1591C16.3126 12.1591 17.7898 9.98295 17.7898 6.18182C17.7898 2.40909 16.2898 0.204545 13.7444 0.204545C11.1989 0.204545 9.69892 2.40909 9.69892 6.18182C9.69892 9.98295 11.1762 12.1591 13.7444 12.1591ZM13.7444 10.9091C12.0512 10.9091 11.0626 9.21023 11.0626 6.18182C11.0626 3.15909 12.0626 1.43182 13.7444 1.43182C15.4262 1.43182 16.4262 3.15909 16.4262 6.18182C16.4262 9.21023 15.4376 10.9091 13.7444 10.9091ZM23.5044 12.1591C26.0726 12.1591 27.5498 9.98295 27.5498 6.18182C27.5498 2.40909 26.0498 0.204545 23.5044 0.204545C20.9589 0.204545 19.4589 2.40909 19.4589 6.18182C19.4589 9.98295 20.9362 12.1591 23.5044 12.1591ZM23.5044 10.9091C21.8112 10.9091 20.8226 9.21023 20.8226 6.18182C20.8226 3.15909 21.8226 1.43182 23.5044 1.43182C25.1862 1.43182 26.1862 3.15909 26.1862 6.18182C26.1862 9.21023 25.1976 10.9091 23.5044 10.9091Z" fill="#4F4F4F"/>
</svg>
